<?xml version="1.0" encoding="utf-8"?>
<!-- Generator: Adobe Illustrator 19.0.0, SVG Export Plug-In . SVG Version: 6.00 Build 0)  -->
<svg version="1.1" id="图层_1" xmlns="http://www.w3.org/2000/svg" xmlns:xlink="http://www.w3.org/1999/xlink" x="0px" y="0px"
	 viewBox="0 0 876.1 504.1" style="enable-background:new 0 0 876.1 504.1;" xml:space="preserve">
<style type="text/css">
	.st0{fill:#2ECC71;}
	.st1{fill:#999999;}
	.st2{fill:#FFFFFF;}
	.st3{fill:#CCCCCC;}
	.st4{fill:#666666;}
	.st5{font-family:'ArialMT';}
	.st6{font-size:12px;}
	.st7{font-size:10px;}
	.st8{fill:#ECECEC;}
	.st9{fill:#FF0000;}
	.st10{fill:#D2D3CE;}
	.st11{fill:#E0F7FD;}
	.st12{fill:#00BDF0;}
	.st13{font-family:'MicrosoftYaHei';}
	.st14{fill:#FF991B;}
	.st15{fill:#333333;}
</style>
<path id="XMLID_507_" class="st0" d="M581,50.5h-28v-16h28c2.2,0,4,1.8,4,4v8C585,48.7,583.2,50.5,581,50.5z"/>
<g id="XMLID_533_">
	<path id="XMLID_32_" class="st1" d="M653.8,37.9h-7.3c-1.1,0-2,0.9-2,2.1v10.1c0,1.2,0.9,2.1,2,2.1h4.6c-0.2-0.3-0.4-0.6-0.5-1
		h-4.1c-0.6,0-1.1-0.5-1.1-1.1V40c0-0.6,0.5-1.1,1.1-1.1h7.3c0.6,0,1.1,0.5,1.1,1.1v3.3c0.2,0,0.5-0.1,0.8-0.1c0.1,0,0.1,0,0.2,0V40
		C655.9,38.9,654.9,37.9,653.8,37.9z M652.4,43.3h-4.5c-0.3,0-0.5,0.2-0.5,0.5c0,0.3,0.2,0.5,0.5,0.5h4.5c0.1,0,0.1,0,0.2,0
		c0.1,0,0.1-0.1,0.2-0.1c0.1-0.1,0.1-0.2,0.1-0.4C652.9,43.5,652.6,43.3,652.4,43.3z M652.4,40.7h-4.5c-0.3,0-0.5,0.2-0.5,0.5
		c0,0.3,0.2,0.5,0.5,0.5h4.5c0.3,0,0.5-0.2,0.5-0.5C652.9,40.9,652.6,40.7,652.4,40.7z M647.9,48.4c-0.3,0-0.5,0.2-0.5,0.5
		c0,0.3,0.2,0.5,0.5,0.5h2.3c0-0.2,0-0.3,0-0.5c0-0.2,0-0.4,0-0.6H647.9z M651.1,45.8h-3.2c-0.3,0-0.5,0.2-0.5,0.5
		c0,0.3,0.2,0.5,0.5,0.5h2.6C650.7,46.5,650.9,46.1,651.1,45.8z"/>
	<g id="XMLID_19_">
		<ellipse id="XMLID_27_" class="st0" cx="655.7" cy="48.9" rx="4.8" ry="5"/>
		<path id="XMLID_25_" class="st2" d="M658.3,48.3l-2.8,2.8c0,0,0,0,0,0l0,0l0,0c-0.1,0.1-0.3,0.2-0.4,0.2c-0.2,0-0.3-0.1-0.4-0.2
			l-1.5-1.5c-0.2-0.2-0.2-0.6,0-0.9c0.2-0.2,0.6-0.2,0.8,0l1.1,1.1l2.4-2.4c0.2-0.2,0.6-0.2,0.8,0C658.5,47.7,658.5,48.1,658.3,48.3
			z"/>
	</g>
</g>
<g id="XMLID_518_">
	<ellipse id="XMLID_54_" class="st0" cx="682.9" cy="48.9" rx="4.8" ry="5"/>
	<path id="XMLID_55_" class="st2" d="M685.5,48.3l-2.8,2.8c0,0,0,0,0,0l0,0l0,0c-0.1,0.1-0.3,0.2-0.4,0.2c-0.2,0-0.3-0.1-0.4-0.2
		l-1.5-1.5c-0.2-0.2-0.2-0.6,0-0.9c0.2-0.2,0.6-0.2,0.8,0l1.1,1.1l2.4-2.4c0.2-0.2,0.6-0.2,0.8,0C685.7,47.7,685.7,48.1,685.5,48.3z
		"/>
	<path id="XMLID_28_" class="st2" d="M681,37.9h-7.3c-1.1,0-2,0.9-2,2.1v10.1c0,1.2,0.9,2.1,2,2.1h4.6c-0.2-0.3-0.4-0.6-0.5-1h-4.1
		c-0.6,0-1.1-0.5-1.1-1.1V40c0-0.6,0.5-1.1,1.1-1.1h7.3c0.6,0,1.1,0.5,1.1,1.1v3.3c0.2,0,0.5-0.1,0.8-0.1c0.1,0,0.1,0,0.2,0V40
		C683.1,38.9,682.1,37.9,681,37.9z M679.6,43.3h-4.5c-0.3,0-0.5,0.2-0.5,0.5c0,0.3,0.2,0.5,0.5,0.5h4.5c0.1,0,0.1,0,0.2,0
		c0.1,0,0.1-0.1,0.2-0.1c0.1-0.1,0.1-0.2,0.1-0.4C680.1,43.5,679.8,43.3,679.6,43.3z M679.6,40.7h-4.5c-0.3,0-0.5,0.2-0.5,0.5
		s0.2,0.5,0.5,0.5h4.5c0.3,0,0.5-0.2,0.5-0.5S679.8,40.7,679.6,40.7z M675.1,48.4c-0.3,0-0.5,0.2-0.5,0.5c0,0.3,0.2,0.5,0.5,0.5h2.3
		c0-0.2,0-0.3,0-0.5c0-0.2,0-0.4,0-0.6H675.1z M678.3,45.8h-3.2c-0.3,0-0.5,0.2-0.5,0.5s0.2,0.5,0.5,0.5h2.6
		C677.9,46.5,678.1,46.1,678.3,45.8z"/>
</g>
<rect id="XMLID_2_" x="267.4" y="26.3" class="st2" width="90" height="108"/>
<rect id="XMLID_3_" x="273.4" y="32.3" class="st3" width="78" height="17"/>
<rect id="XMLID_5_" x="273.4" y="52.3" class="st3" width="78" height="76"/>
<rect id="XMLID_8_" x="147.4" y="26.3" class="st2" width="90" height="108"/>
<rect id="XMLID_7_" x="153.4" y="32.3" class="st3" width="78" height="17"/>
<rect id="XMLID_6_" x="153.4" y="52.3" class="st3" width="20" height="76"/>
<rect id="XMLID_9_" x="176.4" y="52.3" class="st3" width="55" height="76"/>
<rect id="XMLID_13_" x="27.4" y="26.3" class="st2" width="90" height="108"/>
<rect id="XMLID_12_" x="33.4" y="32.3" class="st3" width="78" height="17"/>
<rect id="XMLID_11_" x="91.4" y="52.3" class="st3" width="20" height="76"/>
<rect id="XMLID_10_" x="33.4" y="52.3" class="st3" width="55" height="76"/>
<rect id="XMLID_17_" x="27.4" y="174.3" class="st2" width="90" height="108"/>
<rect id="XMLID_16_" x="33.4" y="180.3" class="st3" width="50" height="50"/>
<path id="XMLID_77_" class="st4" d="M42.4,193.9v22.9h32v-22.9H42.4z M72.1,213L72.1,213l-4.6-7.6l-5.2,4.3l-4-6.6l-13.7,11.4v-18.3
	h27.4V213L72.1,213L72.1,213z M50.4,198.5c-1.9,0-3.4,1.5-3.4,3.4c0,1.9,1.5,3.4,3.4,3.4s3.4-1.5,3.4-3.4
	C53.8,200,52.3,198.5,50.4,198.5z"/>
<g id="XMLID_61_">
	<rect id="XMLID_21_" x="33.4" y="233.3" class="st3" width="10" height="10"/>
	<path id="XMLID_24_" class="st4" d="M35.9,236.5v3.6h5v-3.6H35.9z M40.5,239.5L40.5,239.5l-0.7-1.2L39,239l-0.6-1l-2.1,1.8v-2.9
		h4.3V239.5L40.5,239.5L40.5,239.5z M37.2,237.3c-0.3,0-0.5,0.2-0.5,0.5c0,0.3,0.2,0.5,0.5,0.5c0.3,0,0.5-0.2,0.5-0.5
		C37.7,237.5,37.4,237.3,37.2,237.3z"/>
</g>
<g id="XMLID_60_">
	<rect id="XMLID_39_" x="46.7" y="233.3" class="st3" width="10" height="10"/>
	<path id="XMLID_18_" class="st4" d="M49.2,236.5v3.6h5v-3.6H49.2z M53.9,239.5L53.9,239.5l-0.7-1.2l-0.8,0.7l-0.6-1l-2.1,1.8v-2.9
		h4.3V239.5L53.9,239.5L53.9,239.5z M50.5,237.3c-0.3,0-0.5,0.2-0.5,0.5c0,0.3,0.2,0.5,0.5,0.5c0.3,0,0.5-0.2,0.5-0.5
		C51,237.5,50.8,237.3,50.5,237.3z"/>
</g>
<g id="XMLID_59_">
	<rect id="XMLID_48_" x="60.1" y="233.3" class="st3" width="10" height="10"/>
	<path id="XMLID_43_" class="st4" d="M62.6,236.5v3.6h5v-3.6H62.6z M67.2,239.5L67.2,239.5l-0.7-1.2l-0.8,0.7l-0.6-1l-2.1,1.8v-2.9
		h4.3V239.5L67.2,239.5L67.2,239.5z M63.8,237.3c-0.3,0-0.5,0.2-0.5,0.5c0,0.3,0.2,0.5,0.5,0.5s0.5-0.2,0.5-0.5
		C64.4,237.5,64.1,237.3,63.8,237.3z"/>
</g>
<g id="XMLID_4_">
	<rect id="XMLID_58_" x="73.4" y="233.3" class="st3" width="10" height="10"/>
	<path id="XMLID_49_" class="st4" d="M75.9,236.5v3.6h5v-3.6H75.9z M80.5,239.5L80.5,239.5l-0.7-1.2L79,239l-0.6-1l-2.1,1.8v-2.9
		h4.3V239.5L80.5,239.5L80.5,239.5z M77.2,237.3c-0.3,0-0.5,0.2-0.5,0.5c0,0.3,0.2,0.5,0.5,0.5c0.3,0,0.5-0.2,0.5-0.5
		C77.7,237.5,77.4,237.3,77.2,237.3z"/>
</g>
<g id="XMLID_86_">
	<rect id="XMLID_95_" x="33.4" y="246.3" class="st3" width="10" height="10"/>
	<path id="XMLID_90_" class="st4" d="M35.9,249.5v3.6h5v-3.6H35.9z M40.5,252.5L40.5,252.5l-0.7-1.2L39,252l-0.6-1l-2.1,1.8v-2.9
		h4.3V252.5L40.5,252.5L40.5,252.5z M37.2,250.3c-0.3,0-0.5,0.2-0.5,0.5c0,0.3,0.2,0.5,0.5,0.5c0.3,0,0.5-0.2,0.5-0.5
		C37.7,250.5,37.4,250.3,37.2,250.3z"/>
</g>
<g id="XMLID_79_">
	<rect id="XMLID_85_" x="46.7" y="246.3" class="st3" width="10" height="10"/>
	<path id="XMLID_80_" class="st4" d="M49.2,249.5v3.6h5v-3.6H49.2z M53.9,252.5L53.9,252.5l-0.7-1.2l-0.8,0.7l-0.6-1l-2.1,1.8v-2.9
		h4.3V252.5L53.9,252.5L53.9,252.5z M50.5,250.3c-0.3,0-0.5,0.2-0.5,0.5c0,0.3,0.2,0.5,0.5,0.5c0.3,0,0.5-0.2,0.5-0.5
		C51,250.5,50.8,250.3,50.5,250.3z"/>
</g>
<g id="XMLID_70_">
	<rect id="XMLID_76_" x="60.1" y="246.3" class="st3" width="10" height="10"/>
	<path id="XMLID_71_" class="st4" d="M62.6,249.5v3.6h5v-3.6H62.6z M67.2,252.5L67.2,252.5l-0.7-1.2l-0.8,0.7l-0.6-1l-2.1,1.8v-2.9
		h4.3V252.5L67.2,252.5L67.2,252.5z M63.8,250.3c-0.3,0-0.5,0.2-0.5,0.5c0,0.3,0.2,0.5,0.5,0.5s0.5-0.2,0.5-0.5
		C64.4,250.5,64.1,250.3,63.8,250.3z"/>
</g>
<g id="XMLID_63_">
	<rect id="XMLID_69_" x="73.4" y="246.3" class="st3" width="10" height="10"/>
	<path id="XMLID_64_" class="st4" d="M75.9,249.5v3.6h5v-3.6H75.9z M80.5,252.5L80.5,252.5l-0.7-1.2L79,252l-0.6-1l-2.1,1.8v-2.9
		h4.3V252.5L80.5,252.5L80.5,252.5z M77.2,250.3c-0.3,0-0.5,0.2-0.5,0.5c0,0.3,0.2,0.5,0.5,0.5c0.3,0,0.5-0.2,0.5-0.5
		C77.7,250.5,77.4,250.3,77.2,250.3z"/>
</g>
<g id="XMLID_119_">
	<rect id="XMLID_125_" x="33.4" y="259.3" class="st3" width="10" height="10"/>
	<path id="XMLID_120_" class="st4" d="M35.9,262.5v3.6h5v-3.6H35.9z M40.5,265.5L40.5,265.5l-0.7-1.2L39,265l-0.6-1l-2.1,1.8v-2.9
		h4.3V265.5L40.5,265.5L40.5,265.5z M37.2,263.3c-0.3,0-0.5,0.2-0.5,0.5s0.2,0.5,0.5,0.5c0.3,0,0.5-0.2,0.5-0.5
		S37.4,263.3,37.2,263.3z"/>
</g>
<g id="XMLID_112_">
	<rect id="XMLID_118_" x="46.7" y="259.3" class="st3" width="10" height="10"/>
	<path id="XMLID_113_" class="st4" d="M49.2,262.5v3.6h5v-3.6H49.2z M53.9,265.5L53.9,265.5l-0.7-1.2l-0.8,0.7l-0.6-1l-2.1,1.8v-2.9
		h4.3V265.5L53.9,265.5L53.9,265.5z M50.5,263.3c-0.3,0-0.5,0.2-0.5,0.5c0,0.3,0.2,0.5,0.5,0.5c0.3,0,0.5-0.2,0.5-0.5
		C51,263.5,50.8,263.3,50.5,263.3z"/>
</g>
<g id="XMLID_105_">
	<rect id="XMLID_111_" x="60.1" y="259.3" class="st3" width="10" height="10"/>
	<path id="XMLID_106_" class="st4" d="M62.6,262.5v3.6h5v-3.6H62.6z M67.2,265.5L67.2,265.5l-0.7-1.2l-0.8,0.7l-0.6-1l-2.1,1.8v-2.9
		h4.3V265.5L67.2,265.5L67.2,265.5z M63.8,263.3c-0.3,0-0.5,0.2-0.5,0.5c0,0.3,0.2,0.5,0.5,0.5s0.5-0.2,0.5-0.5
		C64.4,263.5,64.1,263.3,63.8,263.3z"/>
</g>
<g id="XMLID_98_">
	<rect id="XMLID_104_" x="73.4" y="259.3" class="st3" width="10" height="10"/>
	<path id="XMLID_99_" class="st4" d="M75.9,262.5v3.6h5v-3.6H75.9z M80.5,265.5L80.5,265.5l-0.7-1.2L79,265l-0.6-1l-2.1,1.8v-2.9
		h4.3V265.5L80.5,265.5L80.5,265.5z M77.2,263.3c-0.3,0-0.5,0.2-0.5,0.5c0,0.3,0.2,0.5,0.5,0.5c0.3,0,0.5-0.2,0.5-0.5
		C77.7,263.5,77.4,263.3,77.2,263.3z"/>
</g>
<text id="XMLID_62_" transform="matrix(1 0 0 1 86.4008 189.3415)"><tspan x="0" y="0" class="st1 st5 st6">aaaa</tspan><tspan x="0" y="11" class="st1 st5 st6">aaaa</tspan><tspan x="0" y="22" class="st1 st5 st6">aaaa</tspan><tspan x="0" y="33" class="st1 st5 st6">aaaa</tspan><tspan x="0" y="44" class="st1 st5 st6">aaaa</tspan><tspan x="0" y="55" class="st1 st5 st6">aaaa</tspan><tspan x="0" y="66" class="st1 st5 st6">aaaa</tspan><tspan x="0" y="77" class="st1 st5 st6">aaaa</tspan></text>
<rect id="XMLID_401_" x="27.4" y="322.3" class="st2" width="90" height="108"/>
<g id="XMLID_400_">
	<rect id="XMLID_326_" x="33.9" y="354.8" class="st2" width="77" height="62"/>
	<path id="XMLID_323_" class="st3" d="M110.4,355.3v61h-76v-61H110.4 M111.4,354.3h-78v63h78V354.3L111.4,354.3z"/>
</g>
<g id="XMLID_388_">
	<rect id="XMLID_394_" x="33.4" y="328.3" class="st3" width="10" height="10"/>
	<path id="XMLID_389_" class="st4" d="M35.9,331.5v3.6h5v-3.6H35.9z M40.5,334.5L40.5,334.5l-0.7-1.2L39,334l-0.6-1l-2.1,1.8v-2.9
		h4.3V334.5L40.5,334.5L40.5,334.5z M37.2,332.3c-0.3,0-0.5,0.2-0.5,0.5c0,0.3,0.2,0.5,0.5,0.5c0.3,0,0.5-0.2,0.5-0.5
		C37.7,332.5,37.4,332.3,37.2,332.3z"/>
</g>
<rect id="XMLID_412_" x="33.4" y="344.3" class="st3" width="20" height="10"/>
<g id="XMLID_381_">
	<rect id="XMLID_387_" x="46.7" y="328.3" class="st3" width="10" height="10"/>
	<path id="XMLID_382_" class="st4" d="M49.2,331.5v3.6h5v-3.6H49.2z M53.9,334.5L53.9,334.5l-0.7-1.2l-0.8,0.7l-0.6-1l-2.1,1.8v-2.9
		h4.3V334.5L53.9,334.5L53.9,334.5z M50.5,332.3c-0.3,0-0.5,0.2-0.5,0.5c0,0.3,0.2,0.5,0.5,0.5c0.3,0,0.5-0.2,0.5-0.5
		C51,332.5,50.8,332.3,50.5,332.3z"/>
</g>
<g id="XMLID_374_">
	<rect id="XMLID_380_" x="60.1" y="328.3" class="st3" width="10" height="10"/>
	<path id="XMLID_375_" class="st4" d="M62.6,331.5v3.6h5v-3.6H62.6z M67.2,334.5L67.2,334.5l-0.7-1.2l-0.8,0.7l-0.6-1l-2.1,1.8v-2.9
		h4.3V334.5L67.2,334.5L67.2,334.5z M63.8,332.3c-0.3,0-0.5,0.2-0.5,0.5c0,0.3,0.2,0.5,0.5,0.5s0.5-0.2,0.5-0.5
		C64.4,332.5,64.1,332.3,63.8,332.3z"/>
</g>
<g id="XMLID_367_">
	<rect id="XMLID_373_" x="73.4" y="328.3" class="st3" width="10" height="10"/>
	<path id="XMLID_368_" class="st4" d="M75.9,331.5v3.6h5v-3.6H75.9z M80.5,334.5L80.5,334.5l-0.7-1.2L79,334l-0.6-1l-2.1,1.8v-2.9
		h4.3V334.5L80.5,334.5L80.5,334.5z M77.2,332.3c-0.3,0-0.5,0.2-0.5,0.5c0,0.3,0.2,0.5,0.5,0.5c0.3,0,0.5-0.2,0.5-0.5
		C77.7,332.5,77.4,332.3,77.2,332.3z"/>
</g>
<text id="XMLID_15_" transform="matrix(1 0 0 1 86.4008 336.3415)" class="st1 st5 st6">aaaa</text>
<text id="XMLID_406_" transform="matrix(1 0 0 1 35.0582 352.0728)" class="st4 st5 st7">aaa</text>
<rect id="XMLID_408_" x="54.4" y="344.3" class="st8" width="20" height="10"/>
<text id="XMLID_407_" transform="matrix(1 0 0 1 56.0582 352.0728)" class="st4 st5 st7">aaa</text>
<rect id="XMLID_410_" x="75.4" y="344.3" class="st8" width="20" height="10"/>
<text id="XMLID_409_" transform="matrix(1 0 0 1 77.0582 352.0728)" class="st4 st5 st7">aaa</text>
<rect id="XMLID_359_" x="147.4" y="322.3" class="st2" width="90" height="108"/>
<g id="XMLID_353_">
	<rect id="XMLID_398_" x="153.9" y="354.8" class="st2" width="37" height="24"/>
	<path id="XMLID_395_" class="st3" d="M190.4,355.3v23h-36v-23H190.4 M191.4,354.3h-38v25h38V354.3L191.4,354.3z"/>
</g>
<g id="XMLID_346_">
	<rect id="XMLID_352_" x="153.4" y="328.3" class="st3" width="10" height="10"/>
	<path id="XMLID_347_" class="st4" d="M155.9,331.5v3.6h5v-3.6H155.9z M160.5,334.5L160.5,334.5l-0.7-1.2L159,334l-0.6-1l-2.1,1.8
		v-2.9h4.3V334.5L160.5,334.5L160.5,334.5z M157.2,332.3c-0.3,0-0.5,0.2-0.5,0.5c0,0.3,0.2,0.5,0.5,0.5c0.3,0,0.5-0.2,0.5-0.5
		C157.7,332.5,157.4,332.3,157.2,332.3z"/>
</g>
<rect id="XMLID_345_" x="153.4" y="344.3" class="st3" width="38" height="10"/>
<g id="XMLID_338_">
	<rect id="XMLID_344_" x="166.7" y="328.3" class="st3" width="10" height="10"/>
	<path id="XMLID_339_" class="st4" d="M169.2,331.5v3.6h5v-3.6H169.2z M173.9,334.5L173.9,334.5l-0.7-1.2l-0.8,0.7l-0.6-1l-2.1,1.8
		v-2.9h4.3V334.5L173.9,334.5L173.9,334.5z M170.5,332.3c-0.3,0-0.5,0.2-0.5,0.5c0,0.3,0.2,0.5,0.5,0.5s0.5-0.2,0.5-0.5
		C171,332.5,170.8,332.3,170.5,332.3z"/>
</g>
<g id="XMLID_331_">
	<rect id="XMLID_337_" x="180.1" y="328.3" class="st3" width="10" height="10"/>
	<path id="XMLID_332_" class="st4" d="M182.6,331.5v3.6h5v-3.6H182.6z M187.2,334.5L187.2,334.5l-0.7-1.2l-0.8,0.7l-0.6-1l-2.1,1.8
		v-2.9h4.3V334.5L187.2,334.5L187.2,334.5z M183.8,332.3c-0.3,0-0.5,0.2-0.5,0.5c0,0.3,0.2,0.5,0.5,0.5c0.3,0,0.5-0.2,0.5-0.5
		C184.4,332.5,184.1,332.3,183.8,332.3z"/>
</g>
<g id="XMLID_320_">
	<rect id="XMLID_330_" x="193.4" y="328.3" class="st3" width="10" height="10"/>
	<path id="XMLID_321_" class="st4" d="M195.9,331.5v3.6h5v-3.6H195.9z M200.5,334.5L200.5,334.5l-0.7-1.2L199,334l-0.6-1l-2.1,1.8
		v-2.9h4.3V334.5L200.5,334.5L200.5,334.5z M197.2,332.3c-0.3,0-0.5,0.2-0.5,0.5c0,0.3,0.2,0.5,0.5,0.5c0.3,0,0.5-0.2,0.5-0.5
		C197.7,332.5,197.4,332.3,197.2,332.3z"/>
</g>
<text id="XMLID_318_" transform="matrix(1 0 0 1 206.4007 336.3415)" class="st1 st5 st6">aaaa</text>
<text id="XMLID_317_" transform="matrix(1 0 0 1 164.0581 352.0728)" class="st4 st5 st7">aaa</text>
<g id="XMLID_314_">
	<rect id="XMLID_356_" x="193.9" y="354.8" class="st2" width="37" height="24"/>
	<path id="XMLID_316_" class="st3" d="M230.4,355.3v23h-36v-23H230.4 M231.4,354.3h-38v25h38V354.3L231.4,354.3z"/>
</g>
<rect id="XMLID_313_" x="193.4" y="344.3" class="st3" width="38" height="10"/>
<text id="XMLID_311_" transform="matrix(1 0 0 1 204.0581 352.0728)" class="st4 st5 st7">aaa</text>
<g id="XMLID_403_">
	<rect id="XMLID_414_" x="153.9" y="392.8" class="st2" width="37" height="24"/>
	<path id="XMLID_405_" class="st3" d="M190.4,393.3v23h-36v-23H190.4 M191.4,392.3h-38v25h38V392.3L191.4,392.3z"/>
</g>
<rect id="XMLID_402_" x="153.4" y="382.3" class="st3" width="38" height="10"/>
<text id="XMLID_399_" transform="matrix(1 0 0 1 164.0581 390.0728)" class="st4 st5 st7">aaa</text>
<g id="XMLID_360_">
	<rect id="XMLID_366_" x="193.9" y="392.8" class="st2" width="37" height="24"/>
	<path id="XMLID_362_" class="st3" d="M230.4,393.3v23h-36v-23H230.4 M231.4,392.3h-38v25h38V392.3L231.4,392.3z"/>
</g>
<rect id="XMLID_358_" x="193.4" y="382.3" class="st3" width="38" height="10"/>
<text id="XMLID_357_" transform="matrix(1 0 0 1 204.0581 390.0728)" class="st4 st5 st7">aaa</text>
<rect id="XMLID_477_" x="267.5" y="322.3" class="st2" width="90" height="108"/>
<g id="XMLID_471_">
	<rect id="XMLID_478_" x="274" y="354.8" class="st2" width="77" height="24"/>
	<path id="XMLID_474_" class="st3" d="M350.5,355.3v23h-76v-23H350.5 M351.5,354.3h-78v25h78V354.3L351.5,354.3z"/>
</g>
<g id="XMLID_464_">
	<rect id="XMLID_470_" x="273.5" y="328.3" class="st3" width="10" height="10"/>
	<path id="XMLID_465_" class="st4" d="M276,331.5v3.6h5v-3.6H276z M280.7,334.5L280.7,334.5l-0.7-1.2l-0.8,0.7l-0.6-1l-2.1,1.8v-2.9
		h4.3V334.5L280.7,334.5L280.7,334.5z M277.3,332.3c-0.3,0-0.5,0.2-0.5,0.5c0,0.3,0.2,0.5,0.5,0.5c0.3,0,0.5-0.2,0.5-0.5
		C277.8,332.5,277.6,332.3,277.3,332.3z"/>
</g>
<rect id="XMLID_463_" x="273.5" y="344.3" class="st3" width="78" height="10"/>
<g id="XMLID_456_">
	<rect id="XMLID_462_" x="286.9" y="328.3" class="st3" width="10" height="10"/>
	<path id="XMLID_457_" class="st4" d="M289.4,331.5v3.6h5v-3.6H289.4z M294,334.5L294,334.5l-0.7-1.2l-0.8,0.7l-0.6-1l-2.1,1.8v-2.9
		h4.3V334.5L294,334.5L294,334.5z M290.6,332.3c-0.3,0-0.5,0.2-0.5,0.5c0,0.3,0.2,0.5,0.5,0.5c0.3,0,0.5-0.2,0.5-0.5
		C291.1,332.5,290.9,332.3,290.6,332.3z"/>
</g>
<g id="XMLID_449_">
	<rect id="XMLID_455_" x="300.2" y="328.3" class="st3" width="10" height="10"/>
	<path id="XMLID_450_" class="st4" d="M302.7,331.5v3.6h5v-3.6H302.7z M307.3,334.5L307.3,334.5l-0.7-1.2l-0.8,0.7l-0.6-1l-2.1,1.8
		v-2.9h4.3V334.5L307.3,334.5L307.3,334.5z M303.9,332.3c-0.3,0-0.5,0.2-0.5,0.5c0,0.3,0.2,0.5,0.5,0.5s0.5-0.2,0.5-0.5
		C304.5,332.5,304.2,332.3,303.9,332.3z"/>
</g>
<g id="XMLID_442_">
	<rect id="XMLID_448_" x="313.5" y="328.3" class="st3" width="10" height="10"/>
	<path id="XMLID_443_" class="st4" d="M316,331.5v3.6h5v-3.6H316z M320.7,334.5L320.7,334.5l-0.7-1.2l-0.8,0.7l-0.6-1l-2.1,1.8v-2.9
		h4.3V334.5L320.7,334.5L320.7,334.5z M317.3,332.3c-0.3,0-0.5,0.2-0.5,0.5c0,0.3,0.2,0.5,0.5,0.5s0.5-0.2,0.5-0.5
		C317.8,332.5,317.6,332.3,317.3,332.3z"/>
</g>
<text id="XMLID_441_" transform="matrix(1 0 0 1 326.5198 336.3415)" class="st1 st5 st6">aaaa</text>
<text id="XMLID_440_" transform="matrix(1 0 0 1 278.0542 352.0728)" class="st4 st5 st7">aaaaaaa</text>
<g id="XMLID_417_">
	<rect id="XMLID_422_" x="274" y="392.8" class="st2" width="77" height="24"/>
	<path id="XMLID_419_" class="st3" d="M350.5,393.3v23h-76v-23H350.5 M351.5,392.3h-78v25h78V392.3L351.5,392.3z"/>
</g>
<rect id="XMLID_416_" x="273.5" y="382.3" class="st3" width="78" height="10"/>
<text id="XMLID_415_" transform="matrix(1 0 0 1 278.0542 390.0728)" class="st4 st5 st7">aaaaaaa</text>
<rect id="XMLID_216_" x="147.4" y="174.3" class="st2" width="90" height="108"/>
<rect id="XMLID_215_" x="153.4" y="180.3" class="st3" width="50" height="50"/>
<path id="XMLID_210_" class="st4" d="M162.4,193.9v22.9h32v-22.9H162.4z M192.1,213L192.1,213l-4.6-7.6l-5.2,4.3l-4-6.6l-13.7,11.4
	v-18.3h27.4V213L192.1,213L192.1,213z M170.4,198.5c-1.9,0-3.4,1.5-3.4,3.4c0,1.9,1.5,3.4,3.4,3.4c1.9,0,3.4-1.5,3.4-3.4
	C173.8,200,172.3,198.5,170.4,198.5z"/>
<g id="XMLID_203_">
	<rect id="XMLID_209_" x="206.4" y="180.3" class="st3" width="10" height="10"/>
	<path id="XMLID_204_" class="st4" d="M208.9,183.5v3.6h5v-3.6H208.9z M213.5,186.5L213.5,186.5l-0.7-1.2L212,186l-0.6-1l-2.1,1.8
		v-2.9h4.3V186.5L213.5,186.5L213.5,186.5z M210.2,184.3c-0.3,0-0.5,0.2-0.5,0.5c0,0.3,0.2,0.5,0.5,0.5c0.3,0,0.5-0.2,0.5-0.5
		C210.7,184.5,210.4,184.3,210.2,184.3z"/>
</g>
<g id="XMLID_196_">
	<rect id="XMLID_202_" x="219.7" y="180.3" class="st3" width="10" height="10"/>
	<path id="XMLID_197_" class="st4" d="M222.2,183.5v3.6h5v-3.6H222.2z M226.9,186.5L226.9,186.5l-0.7-1.2l-0.8,0.7l-0.6-1l-2.1,1.8
		v-2.9h4.3V186.5L226.9,186.5L226.9,186.5z M223.5,184.3c-0.3,0-0.5,0.2-0.5,0.5c0,0.3,0.2,0.5,0.5,0.5s0.5-0.2,0.5-0.5
		C224,184.5,223.8,184.3,223.5,184.3z"/>
</g>
<g id="XMLID_189_">
	<rect id="XMLID_195_" x="206.4" y="219.3" class="st3" width="10" height="10"/>
	<path id="XMLID_190_" class="st4" d="M208.9,222.5v3.6h5v-3.6H208.9z M213.5,225.5L213.5,225.5l-0.7-1.2L212,225l-0.6-1l-2.1,1.8
		v-2.9h4.3V225.5L213.5,225.5L213.5,225.5z M210.2,223.3c-0.3,0-0.5,0.2-0.5,0.5c0,0.3,0.2,0.5,0.5,0.5c0.3,0,0.5-0.2,0.5-0.5
		C210.7,223.5,210.4,223.3,210.2,223.3z"/>
</g>
<g id="XMLID_182_">
	<rect id="XMLID_188_" x="219.7" y="219.3" class="st3" width="10" height="10"/>
	<path id="XMLID_183_" class="st4" d="M222.2,222.5v3.6h5v-3.6H222.2z M226.9,225.5L226.9,225.5l-0.7-1.2l-0.8,0.7l-0.6-1l-2.1,1.8
		v-2.9h4.3V225.5L226.9,225.5L226.9,225.5z M223.5,223.3c-0.3,0-0.5,0.2-0.5,0.5c0,0.3,0.2,0.5,0.5,0.5c0.3,0,0.5-0.2,0.5-0.5
		C224,223.5,223.8,223.3,223.5,223.3z"/>
</g>
<g id="XMLID_175_">
	<rect id="XMLID_181_" x="206.4" y="193.3" class="st3" width="10" height="10"/>
	<path id="XMLID_176_" class="st4" d="M208.9,196.5v3.6h5v-3.6H208.9z M213.5,199.5L213.5,199.5l-0.7-1.2L212,199l-0.6-1l-2.1,1.8
		v-2.9h4.3V199.5L213.5,199.5L213.5,199.5z M210.2,197.3c-0.3,0-0.5,0.2-0.5,0.5c0,0.3,0.2,0.5,0.5,0.5c0.3,0,0.5-0.2,0.5-0.5
		C210.7,197.5,210.4,197.3,210.2,197.3z"/>
</g>
<g id="XMLID_168_">
	<rect id="XMLID_174_" x="219.7" y="193.3" class="st3" width="10" height="10"/>
	<path id="XMLID_169_" class="st4" d="M222.2,196.5v3.6h5v-3.6H222.2z M226.9,199.5L226.9,199.5l-0.7-1.2l-0.8,0.7l-0.6-1l-2.1,1.8
		v-2.9h4.3V199.5L226.9,199.5L226.9,199.5z M223.5,197.3c-0.3,0-0.5,0.2-0.5,0.5c0,0.3,0.2,0.5,0.5,0.5s0.5-0.2,0.5-0.5
		C224,197.5,223.8,197.3,223.5,197.3z"/>
</g>
<g id="XMLID_147_">
	<rect id="XMLID_153_" x="206.4" y="206.3" class="st3" width="10" height="10"/>
	<path id="XMLID_148_" class="st4" d="M208.9,209.5v3.6h5v-3.6H208.9z M213.5,212.5L213.5,212.5l-0.7-1.2L212,212l-0.6-1l-2.1,1.8
		v-2.9h4.3V212.5L213.5,212.5L213.5,212.5z M210.2,210.3c-0.3,0-0.5,0.2-0.5,0.5c0,0.3,0.2,0.5,0.5,0.5c0.3,0,0.5-0.2,0.5-0.5
		C210.7,210.5,210.4,210.3,210.2,210.3z"/>
</g>
<g id="XMLID_140_">
	<rect id="XMLID_146_" x="219.7" y="206.3" class="st3" width="10" height="10"/>
	<path id="XMLID_141_" class="st4" d="M222.2,209.5v3.6h5v-3.6H222.2z M226.9,212.5L226.9,212.5l-0.7-1.2l-0.8,0.7l-0.6-1l-2.1,1.8
		v-2.9h4.3V212.5L226.9,212.5L226.9,212.5z M223.5,210.3c-0.3,0-0.5,0.2-0.5,0.5c0,0.3,0.2,0.5,0.5,0.5s0.5-0.2,0.5-0.5
		C224,210.5,223.8,210.3,223.5,210.3z"/>
</g>
<text id="XMLID_97_" transform="matrix(1 0 0 1 153.4008 240.6312)"><tspan x="0" y="0" class="st1 st5 st6">aaaaaaaaaaaa</tspan><tspan x="0" y="11" class="st1 st5 st6">aaaaaaaaaaaa</tspan><tspan x="0" y="22" class="st1 st5 st6">aaaaaaaaaaaa</tspan><tspan x="0" y="33" class="st1 st5 st6">aaaaaaaaaaaa</tspan></text>
<rect id="XMLID_252_" x="267.5" y="174.3" class="st2" width="90" height="108"/>
<rect id="XMLID_251_" x="273.5" y="180.3" class="st3" width="50" height="50"/>
<path id="XMLID_246_" class="st4" d="M282.5,193.9v22.9h32v-22.9H282.5z M312.2,213L312.2,213l-4.6-7.6l-5.2,4.3l-4-6.6l-13.7,11.4
	v-18.3h27.4V213L312.2,213L312.2,213z M290.5,198.5c-1.9,0-3.4,1.5-3.4,3.4c0,1.9,1.5,3.4,3.4,3.4c1.9,0,3.4-1.5,3.4-3.4
	C293.9,200,292.4,198.5,290.5,198.5z"/>
<rect id="XMLID_245_" x="326.5" y="180.3" class="st3" width="23" height="23"/>
<path id="XMLID_240_" class="st4" d="M332,187.5v8.6h12v-8.6H332z M343.2,194.7L343.2,194.7l-1.7-2.9l-1.9,1.6L338,191l-5.1,4.3
	v-6.9h10.3V194.7L343.2,194.7L343.2,194.7z M335,189.3c-0.7,0-1.3,0.6-1.3,1.3s0.6,1.3,1.3,1.3s1.3-0.6,1.3-1.3
	S335.7,189.3,335,189.3z"/>
<rect id="XMLID_132_" x="326.5" y="206.4" class="st3" width="23" height="23"/>
<path id="XMLID_127_" class="st4" d="M332,213.6v8.6h12v-8.6H332z M343.2,220.8L343.2,220.8l-1.7-2.9l-1.9,1.6L338,217l-5.1,4.3
	v-6.9h10.3V220.8L343.2,220.8L343.2,220.8z M335,215.3c-0.7,0-1.3,0.6-1.3,1.3c0,0.7,0.6,1.3,1.3,1.3s1.3-0.6,1.3-1.3
	C336.3,215.9,335.7,215.3,335,215.3z"/>
<text id="XMLID_126_" transform="matrix(1 0 0 1 273.5198 240.6312)"><tspan x="0" y="0" class="st1 st5 st6">aaaaaaaaaaaa</tspan><tspan x="0" y="11" class="st1 st5 st6">aaaaaaaaaaaa</tspan><tspan x="0" y="22" class="st1 st5 st6">aaaaaaaaaaaa</tspan><tspan x="0" y="33" class="st1 st5 st6">aaaaaaaaaaaa</tspan></text>
<rect id="XMLID_309_" x="747.4" y="174.3" class="st2" width="90" height="108"/>
<rect id="XMLID_308_" x="753.4" y="180.3" class="st3" width="50" height="50"/>
<path id="XMLID_303_" class="st4" d="M762.4,193.9v22.9h32v-22.9H762.4z M792.1,213L792.1,213l-4.6-7.6l-5.2,4.3l-4-6.6l-13.7,11.4
	v-18.3h27.4V213L792.1,213L792.1,213z M770.4,198.5c-1.9,0-3.4,1.5-3.4,3.4c0,1.9,1.5,3.4,3.4,3.4c1.9,0,3.4-1.5,3.4-3.4
	C773.8,200,772.3,198.5,770.4,198.5z"/>
<rect id="XMLID_302_" x="809.8" y="233.3" class="st3" width="23" height="23"/>
<path id="XMLID_297_" class="st4" d="M815.3,240.5v8.6h12v-8.6H815.3z M826.5,247.7L826.5,247.7l-1.7-2.9l-1.9,1.6l-1.5-2.5
	l-5.1,4.3v-6.9h10.3V247.7L826.5,247.7L826.5,247.7z M818.3,242.3c-0.7,0-1.3,0.6-1.3,1.3s0.6,1.3,1.3,1.3s1.3-0.6,1.3-1.3
	S819,242.3,818.3,242.3z"/>
<rect id="XMLID_289_" x="753.4" y="256.3" class="st3" width="23" height="22.5"/>
<path id="XMLID_262_" class="st4" d="M758.9,263.5v8.6h12v-8.6H758.9z M770,270.7L770,270.7l-1.7-2.9l-1.9,1.6l-1.5-2.5l-5.1,4.3
	v-6.9H770V270.7L770,270.7L770,270.7z M761.9,265.3c-0.7,0-1.3,0.6-1.3,1.3s0.6,1.3,1.3,1.3s1.3-0.6,1.3-1.3
	S762.6,265.3,761.9,265.3z"/>
<text id="XMLID_260_" transform="matrix(1 0 0 1 753.4002 240.6312)"><tspan x="0" y="0" class="st1 st5 st6">aaaaaaaa</tspan><tspan x="0" y="11" class="st1 st5 st6">aaaaaaaa</tspan></text>
<text id="XMLID_312_" transform="matrix(1 0 0 1 779.4002 265.2562)"><tspan x="0" y="0" class="st1 st5 st6">aaaaaaaa</tspan><tspan x="0" y="11" class="st1 st5 st6">aaaaaaaa</tspan></text>
<rect id="XMLID_166_" x="387.4" y="174.3" class="st2" width="90" height="108"/>
<rect id="XMLID_165_" x="393.4" y="180.3" class="st3" width="50" height="50"/>
<path id="XMLID_160_" class="st4" d="M402.4,193.9v22.9h32v-22.9H402.4z M432.1,213L432.1,213l-4.6-7.6l-5.2,4.3l-4-6.6l-13.7,11.4
	v-18.3h27.4V213L432.1,213L432.1,213z M410.4,198.5c-1.9,0-3.4,1.5-3.4,3.4c0,1.9,1.5,3.4,3.4,3.4s3.4-1.5,3.4-3.4
	C413.8,200,412.3,198.5,410.4,198.5z"/>
<rect id="XMLID_159_" x="393.4" y="233.3" class="st3" width="23" height="23"/>
<path id="XMLID_154_" class="st4" d="M398.9,240.5v8.6h12v-8.6H398.9z M410,247.7L410,247.7l-1.7-2.9l-1.9,1.6l-1.5-2.5l-5.1,4.3
	v-6.9H410V247.7L410,247.7L410,247.7z M401.9,242.3c-0.7,0-1.3,0.6-1.3,1.3s0.6,1.3,1.3,1.3s1.3-0.6,1.3-1.3
	S402.6,242.3,401.9,242.3z"/>
<rect id="XMLID_139_" x="419.4" y="233.3" class="st3" width="23" height="23"/>
<path id="XMLID_134_" class="st4" d="M424.9,240.5v8.6h12v-8.6H424.9z M436,247.7L436,247.7l-1.7-2.9l-1.9,1.6l-1.5-2.5l-5.1,4.3
	v-6.9H436V247.7L436,247.7L436,247.7z M427.9,242.3c-0.7,0-1.3,0.6-1.3,1.3s0.6,1.3,1.3,1.3s1.3-0.6,1.3-1.3
	S428.6,242.3,427.9,242.3z"/>
<rect id="XMLID_223_" x="445.4" y="233.3" class="st3" width="23" height="23"/>
<path id="XMLID_218_" class="st4" d="M450.9,240.5v8.6h12v-8.6H450.9z M462,247.7L462,247.7l-1.7-2.9l-1.9,1.6l-1.5-2.5l-5.1,4.3
	v-6.9H462V247.7L462,247.7L462,247.7z M453.9,242.3c-0.7,0-1.3,0.6-1.3,1.3s0.6,1.3,1.3,1.3s1.3-0.6,1.3-1.3
	S454.6,242.3,453.9,242.3z"/>
<rect id="XMLID_239_" x="393.4" y="259.3" class="st3" width="23" height="17"/>
<rect id="XMLID_227_" x="419.4" y="259.3" class="st3" width="23" height="17"/>
<rect id="XMLID_233_" x="445.4" y="259.3" class="st3" width="23" height="17"/>
<path id="XMLID_234_" class="st4" d="M398.9,266.5v8.6h12v-8.6H398.9z M410,273.7L410,273.7l-1.7-2.9l-1.9,1.6l-1.5-2.5l-5.1,4.3
	v-6.9H410V273.7L410,273.7L410,273.7z M401.9,268.3c-0.7,0-1.3,0.6-1.3,1.3s0.6,1.3,1.3,1.3s1.3-0.6,1.3-1.3
	S402.6,268.3,401.9,268.3z"/>
<path id="XMLID_228_" class="st4" d="M424.9,266.5v8.6h12v-8.6H424.9z M436,273.7L436,273.7l-1.7-2.9l-1.9,1.6l-1.5-2.5l-5.1,4.3
	v-6.9H436V273.7L436,273.7L436,273.7z M427.9,268.3c-0.7,0-1.3,0.6-1.3,1.3s0.6,1.3,1.3,1.3s1.3-0.6,1.3-1.3
	S428.6,268.3,427.9,268.3z"/>
<path id="XMLID_167_" class="st4" d="M450.9,266.5v8.6h12v-8.6H450.9z M462,273.7L462,273.7l-1.7-2.9l-1.9,1.6l-1.5-2.5l-5.1,4.3
	v-6.9H462V273.7L462,273.7L462,273.7z M453.9,268.3c-0.7,0-1.3,0.6-1.3,1.3s0.6,1.3,1.3,1.3s1.3-0.6,1.3-1.3
	S454.6,268.3,453.9,268.3z"/>
<text id="XMLID_133_" transform="matrix(1 0 0 1 446.4002 186.3415)"><tspan x="0" y="0" class="st1 st5 st6">aaaa</tspan><tspan x="0" y="11" class="st1 st5 st6">aaaa</tspan><tspan x="0" y="22" class="st1 st5 st6">aaaa</tspan><tspan x="0" y="33" class="st1 st5 st6">aaaa</tspan><tspan x="0" y="44" class="st1 st5 st6">aaaa</tspan></text>
<text id="XMLID_310_" transform="matrix(1 0 0 1 806.4003 186.3415)"><tspan x="0" y="0" class="st1 st5 st6">aaaa</tspan><tspan x="0" y="11" class="st1 st5 st6">aaaa</tspan><tspan x="0" y="22" class="st1 st5 st6">aaaa</tspan><tspan x="0" y="33" class="st1 st5 st6">aaaa</tspan><tspan x="0" y="44" class="st1 st5 st6">aaaa</tspan></text>
<rect id="XMLID_296_" x="507.4" y="174.3" class="st2" width="90" height="108"/>
<rect id="XMLID_295_" x="513.4" y="180.3" class="st3" width="78" height="30"/>
<path id="XMLID_290_" class="st4" d="M536.4,183.9v22.9h32v-22.9H536.4z M566.1,203L566.1,203l-4.6-7.6l-5.2,4.3l-4-6.6l-13.7,11.4
	v-18.3h27.4V203L566.1,203L566.1,203z M544.4,188.5c-1.9,0-3.4,1.5-3.4,3.4c0,1.9,1.5,3.4,3.4,3.4c1.9,0,3.4-1.5,3.4-3.4
	C547.8,190,546.3,188.5,544.4,188.5z"/>
<rect id="XMLID_259_" x="513.4" y="234.8" class="st3" width="78" height="30"/>
<path id="XMLID_254_" class="st4" d="M536.4,238.4v22.9h32v-22.9H536.4z M566.1,257.4L566.1,257.4l-4.6-7.6l-5.2,4.3l-4-6.6
	l-13.7,11.4v-18.3h27.4V257.4L566.1,257.4L566.1,257.4z M544.4,242.9c-1.9,0-3.4,1.5-3.4,3.4c0,1.9,1.5,3.4,3.4,3.4
	c1.9,0,3.4-1.5,3.4-3.4C547.8,244.5,546.3,242.9,544.4,242.9z"/>
<rect id="XMLID_265_" x="513.4" y="267.8" class="st3" width="78" height="11"/>
<text id="XMLID_253_" transform="matrix(1 0 0 1 513.4002 220.6315)"><tspan x="0" y="0" class="st1 st5 st6">aaaaaaaaaaaa</tspan><tspan x="0" y="11" class="st1 st5 st6">aaaaaaaaaaaa</tspan></text>
<path id="XMLID_271_" class="st4" d="M536.4,271.4v7.4h2.3v-5.1h27.4v5.1h2.3v-7.4H536.4z M544.4,275.9c-1.7,0-3.1,1.2-3.4,2.9h6.7
	C547.5,277.2,546.1,275.9,544.4,275.9z"/>
<rect id="XMLID_281_" x="627.4" y="174.3" class="st2" width="90" height="108"/>
<rect id="XMLID_280_" x="633.4" y="180.3" class="st3" width="78" height="30"/>
<path id="XMLID_275_" class="st4" d="M656.4,183.9v22.9h32v-22.9H656.4z M686.1,203L686.1,203l-4.6-7.6l-5.2,4.3l-4-6.6l-13.7,11.4
	v-18.3h27.4V203L686.1,203L686.1,203z M664.4,188.5c-1.9,0-3.4,1.5-3.4,3.4c0,1.9,1.5,3.4,3.4,3.4c1.9,0,3.4-1.5,3.4-3.4
	C667.8,190,666.3,188.5,664.4,188.5z"/>
<rect id="XMLID_274_" x="633.4" y="223.6" class="st3" width="78" height="30"/>
<path id="XMLID_266_" class="st4" d="M656.4,227.2v22.9h32v-22.9H656.4z M686.1,246.3L686.1,246.3l-4.6-7.6l-5.2,4.3l-4-6.6
	l-13.7,11.4v-18.3h27.4V246.3L686.1,246.3L686.1,246.3z M664.4,231.8c-1.9,0-3.4,1.5-3.4,3.4c0,1.9,1.5,3.4,3.4,3.4
	c1.9,0,3.4-1.5,3.4-3.4C667.8,233.3,666.3,231.8,664.4,231.8z"/>
<rect id="XMLID_287_" x="633.4" y="266.9" class="st3" width="78" height="11.9"/>
<text id="XMLID_263_" transform="matrix(1 0 0 1 633.4002 220.6315)" class="st1 st5 st6">aaaaaaaaaaaa</text>
<text id="XMLID_261_" transform="matrix(1 0 0 1 633.4002 263.9296)" class="st1 st5 st6">aaaaaaaaaaaa</text>
<path id="XMLID_284_" class="st4" d="M656.4,270.5v8.3h2.3v-6h27.4v6h2.3v-8.3H656.4z M664.4,275.1c-1.9,0-3.4,1.5-3.4,3.4
	c0,0.1,0,0.2,0,0.3h6.8c0-0.1,0-0.2,0-0.3C667.8,276.6,666.3,275.1,664.4,275.1z"/>
<path id="XMLID_96_" class="st9" d="M421.6,58.2c3-1.3,6.1-1.9,9.3-1.9c3.3,0,6.4,0.6,9.3,1.9c3,1.3,5.5,3,7.7,5.1
	c2.1,2.1,3.9,4.7,5.1,7.7c1.3,3,1.9,6.1,1.9,9.3c0,3.3-0.6,6.4-1.9,9.3c-1.3,3-3,5.5-5.1,7.7c-2.1,2.1-4.7,3.9-7.7,5.1
	c-3,1.3-6.1,1.9-9.3,1.9c-3.3,0-6.4-0.6-9.3-1.9c-3-1.3-5.5-3-7.7-5.1c-2.1-2.1-3.9-4.7-5.1-7.7c-1.3-3-1.9-6.1-1.9-9.3
	c0-3.3,0.6-6.4,1.9-9.3c1.3-3,3-5.5,5.1-7.7C416.1,61.2,418.6,59.5,421.6,58.2z M434.5,82.5l2.4-12.6c0.1-0.6,0-1-0.3-1.4
	c-0.3-0.4-0.8-0.6-1.4-0.6h-8.6c-0.6,0-1,0.2-1.3,0.6c-0.3,0.4-0.4,0.9-0.3,1.4l2.4,12.6c0.1,0.6,0.4,1,0.9,1.4
	c0.5,0.4,1,0.6,1.6,0.6h2.2c0.6,0,1.1-0.2,1.6-0.6C434.1,83.5,434.4,83,434.5,82.5z M435.1,88.7h-8.3v4.2h8.3V88.7z"/>
<path id="XMLID_439_" class="st1" d="M502.4,76.8v26h32v-26H502.4z M532.9,101.3h-29.1V78.2h29.1L532.9,101.3L532.9,101.3z"/>
<rect id="XMLID_429_" x="505.3" y="79.7" class="st10" width="7.3" height="20.2"/>
<rect id="XMLID_428_" x="514" y="79.7" class="st10" width="17.5" height="13"/>
<rect id="XMLID_427_" x="514" y="94.1" class="st10" width="7.3" height="5.8"/>
<rect id="XMLID_426_" x="522.8" y="94.1" class="st10" width="8.7" height="5.8"/>
<path id="XMLID_436_" class="st10" d="M548.8,76.8v26h32v-26H548.8z M579.4,101.3h-29.1V78.2h29.1L579.4,101.3L579.4,101.3z"/>
<rect id="XMLID_435_" x="551.8" y="79.7" class="st1" width="7.3" height="20.2"/>
<rect id="XMLID_434_" x="560.5" y="79.7" class="st10" width="17.5" height="13"/>
<rect id="XMLID_433_" x="560.5" y="94.1" class="st10" width="7.3" height="5.8"/>
<rect id="XMLID_432_" x="569.2" y="94.1" class="st10" width="8.7" height="5.8"/>
<path id="XMLID_482_" class="st10" d="M593.5,76.8v26h32v-26H593.5z M624.1,101.3H595V78.2h29.1L624.1,101.3L624.1,101.3z"/>
<rect id="XMLID_481_" x="596.4" y="79.7" class="st10" width="7.3" height="20.2"/>
<rect id="XMLID_480_" x="605.1" y="79.7" class="st1" width="17.5" height="13"/>
<rect id="XMLID_479_" x="605.1" y="94.1" class="st1" width="7.3" height="5.8"/>
<rect id="XMLID_473_" x="613.9" y="94.1" class="st1" width="8.7" height="5.8"/>
<path id="XMLID_503_" class="st2" d="M502.4,121v26h32v-26H502.4z M532.9,145.6h-29.1v-23.1h29.1L532.9,145.6L532.9,145.6z"/>
<rect id="XMLID_502_" x="505.3" y="123.9" class="st11" width="7.3" height="20.2"/>
<rect id="XMLID_501_" x="514" y="123.9" class="st11" width="17.5" height="13"/>
<rect id="XMLID_500_" x="514" y="138.3" class="st11" width="7.3" height="5.8"/>
<rect id="XMLID_499_" x="522.8" y="138.3" class="st11" width="8.7" height="5.8"/>
<path id="XMLID_496_" class="st11" d="M548.8,121v26h32v-26H548.8z M579.4,145.6h-29.1v-23.1h29.1L579.4,145.6L579.4,145.6z"/>
<rect id="XMLID_495_" x="551.8" y="123.9" class="st2" width="7.3" height="20.2"/>
<rect id="XMLID_494_" x="560.5" y="123.9" class="st11" width="17.5" height="13"/>
<rect id="XMLID_493_" x="560.5" y="138.3" class="st11" width="7.3" height="5.8"/>
<rect id="XMLID_492_" x="569.2" y="138.3" class="st11" width="8.7" height="5.8"/>
<path id="XMLID_489_" class="st11" d="M593.5,121v26h32v-26H593.5z M624.1,145.6H595v-23.1h29.1L624.1,145.6L624.1,145.6z"/>
<rect id="XMLID_488_" x="596.4" y="123.9" class="st11" width="7.3" height="20.2"/>
<rect id="XMLID_487_" x="605.1" y="123.9" class="st2" width="17.5" height="13"/>
<rect id="XMLID_486_" x="605.1" y="138.3" class="st2" width="7.3" height="5.8"/>
<rect id="XMLID_485_" x="613.9" y="138.3" class="st2" width="8.7" height="5.8"/>
<path id="XMLID_14_" class="st12" d="M511.7,50.5h-10c-1.7,0-3-1.3-3-3v-10c0-1.7,1.3-3,3-3h10c1.7,0,3,1.3,3,3v10
	C514.7,49.1,513.3,50.5,511.7,50.5z"/>
<text id="XMLID_506_" transform="matrix(1 0 0 1 500.6817 46.5891)" class="st2 st13 st6">零</text>
<path id="XMLID_510_" class="st14" d="M537.6,50.5h-10c-1.7,0-3-1.3-3-3v-10c0-1.7,1.3-3,3-3h10c1.7,0,3,1.3,3,3v10
	C540.6,49.1,539.2,50.5,537.6,50.5z"/>
<text id="XMLID_509_" transform="matrix(1 0 0 1 526.5567 46.5891)" class="st2 st13 st6">批</text>
<g id="XMLID_508_">
	<path id="XMLID_512_" class="st2" d="M564.6,43.4v-1l3.6,0v3.2c-0.6,0.4-1.1,0.8-1.7,1s-1.2,0.3-1.8,0.3c-0.8,0-1.6-0.2-2.3-0.5
		s-1.2-0.9-1.6-1.6s-0.5-1.4-0.5-2.3c0-0.8,0.2-1.6,0.5-2.3s0.9-1.3,1.5-1.6s1.4-0.5,2.3-0.5c0.6,0,1.2,0.1,1.7,0.3s0.9,0.5,1.2,0.8
		s0.5,0.8,0.7,1.4l-1,0.3c-0.1-0.4-0.3-0.8-0.5-1s-0.5-0.5-0.8-0.6S565,39,564.6,39c-0.5,0-1,0.1-1.3,0.2s-0.7,0.4-0.9,0.6
		s-0.4,0.5-0.5,0.8c-0.2,0.5-0.3,1.1-0.3,1.7c0,0.8,0.1,1.4,0.4,1.9s0.6,0.9,1.2,1.1s1,0.4,1.6,0.4c0.5,0,1-0.1,1.4-0.3
		s0.8-0.4,1.1-0.6v-1.6H564.6z"/>
	<path id="XMLID_514_" class="st2" d="M569.5,42.6c0-1.4,0.4-2.5,1.1-3.3s1.8-1.2,3-1.2c0.8,0,1.5,0.2,2.1,0.6s1.1,0.9,1.5,1.6
		s0.5,1.4,0.5,2.3c0,0.9-0.2,1.7-0.5,2.3s-0.8,1.2-1.5,1.6s-1.3,0.5-2.1,0.5c-0.8,0-1.5-0.2-2.2-0.6s-1.1-0.9-1.4-1.6
		S569.5,43.3,569.5,42.6z M570.7,42.6c0,1,0.3,1.9,0.8,2.4s1.3,0.9,2.1,0.9c0.9,0,1.6-0.3,2.1-0.9s0.8-1.5,0.8-2.6
		c0-0.7-0.1-1.3-0.4-1.8s-0.6-0.9-1-1.2s-1-0.4-1.5-0.4c-0.8,0-1.5,0.3-2.1,0.8S570.7,41.3,570.7,42.6z"/>
</g>
<circle id="XMLID_511_" class="st3" cx="650.7" cy="89" r="8"/>
<g id="XMLID_519_">
	<polygon id="XMLID_517_" class="st2" points="646.7,89 648.7,87 648.7,91 	"/>
	<polygon id="XMLID_520_" class="st2" points="654.7,89 651.7,92 651.7,86 	"/>
</g>
<circle id="XMLID_525_" class="st15" cx="681.4" cy="89" r="8"/>
<g id="XMLID_522_">
	<polygon id="XMLID_524_" class="st2" points="677.4,89 679.4,87 679.4,91 	"/>
	<polygon id="XMLID_523_" class="st2" points="685.4,89 682.4,92 682.4,86 	"/>
</g>
<circle id="XMLID_532_" class="st3" cx="650.7" cy="133.7" r="8"/>
<g id="XMLID_529_">
	<polygon id="XMLID_531_" class="st2" points="654.7,133.7 652.7,131.7 652.7,135.7 	"/>
	<polygon id="XMLID_530_" class="st2" points="646.7,133.7 649.7,136.7 649.7,130.7 	"/>
</g>
<circle id="XMLID_528_" class="st15" cx="681.4" cy="133.7" r="8"/>
<g id="XMLID_521_">
	<polygon id="XMLID_527_" class="st2" points="685.4,133.7 683.4,131.7 683.4,135.7 	"/>
	<polygon id="XMLID_526_" class="st2" points="677.4,133.7 680.4,136.7 680.4,130.7 	"/>
</g>
</svg>
