<?xml version="1.0" encoding="utf-8"?>
<!-- Generator: Adobe Illustrator 19.0.0, SVG Export Plug-In . SVG Version: 6.00 Build 0)  -->
<svg version="1.1" id="图层_1" xmlns="http://www.w3.org/2000/svg" xmlns:xlink="http://www.w3.org/1999/xlink" x="0px" y="0px"
	 viewBox="0 0 90 108" style="enable-background:new 0 0 90 108;" xml:space="preserve">
<style type="text/css">
	.st0{fill:#FFFFFF;}
	.st1{fill:#CCCCCC;}
	.st2{fill:#666666;}
	.st3{fill:#999999;}
	.st4{font-family:'ArialMT';}
	.st5{font-size:12px;}
</style>
<rect id="XMLID_309_" class="st0" width="90" height="108"/>
<rect id="XMLID_308_" x="6" y="6" class="st1" width="50" height="50"/>
<path id="XMLID_303_" class="st2" d="M15,19.6v22.9h32V19.6H15z M44.7,38.7L44.7,38.7l-4.6-7.6l-5.2,4.3l-4-6.6L17.2,40.2V21.9h27.4
	L44.7,38.7L44.7,38.7L44.7,38.7z M23,24.2c-1.9,0-3.4,1.5-3.4,3.4S21.1,31,23,31s3.4-1.5,3.4-3.4C26.4,25.7,24.9,24.2,23,24.2z"/>
<rect id="XMLID_302_" x="62.4" y="59" class="st1" width="23" height="23"/>
<path id="XMLID_297_" class="st2" d="M67.9,66.2v8.6h12v-8.6H67.9z M79.1,73.4L79.1,73.4l-1.7-2.9l-1.9,1.6L74,69.6l-5.1,4.3V67
	h10.3L79.1,73.4L79.1,73.4L79.1,73.4z M70.9,68c-0.7,0-1.3,0.6-1.3,1.3s0.6,1.3,1.3,1.3s1.3-0.6,1.3-1.3S71.6,68,70.9,68z"/>
<rect id="XMLID_289_" x="6" y="82" class="st1" width="23" height="22.5"/>
<path id="XMLID_262_" class="st2" d="M11.5,89.2v8.6h12v-8.6H11.5z M22.6,96.4L22.6,96.4l-1.7-2.9L19,95.1l-1.5-2.5l-5.1,4.3V90
	h10.2V96.4L22.6,96.4L22.6,96.4z M14.5,91c-0.7,0-1.3,0.6-1.3,1.3s0.6,1.3,1.3,1.3s1.3-0.6,1.3-1.3S15.2,91,14.5,91z"/>
<text id="XMLID_13_" transform="matrix(1 0 0 1 6.0002 66.3312)" class="st3 st4 st5">aaaaaaaa</text>
<text id="XMLID_12_" transform="matrix(1 0 0 1 6.0002 77.3312)" class="st3 st4 st5">aaaaaaaa</text>
<text id="XMLID_10_" transform="matrix(1 0 0 1 32.0002 90.9562)" class="st3 st4 st5">aaaaaaaa</text>
<text id="XMLID_9_" transform="matrix(1 0 0 1 32.0002 101.9562)" class="st3 st4 st5">aaaaaaaa</text>
<text id="XMLID_7_" transform="matrix(1 0 0 1 59.0003 12.0415)" class="st3 st4 st5">aaaa</text>
<text id="XMLID_6_" transform="matrix(1 0 0 1 59.0003 23.0415)" class="st3 st4 st5">aaaa</text>
<text id="XMLID_5_" transform="matrix(1 0 0 1 59.0003 34.0415)" class="st3 st4 st5">aaaa</text>
<text id="XMLID_4_" transform="matrix(1 0 0 1 59.0003 45.0415)" class="st3 st4 st5">aaaa</text>
<text id="XMLID_3_" transform="matrix(1 0 0 1 59.0003 56.0415)" class="st3 st4 st5">aaaa</text>
</svg>
