<?xml version="1.0" encoding="utf-8"?>
<!-- Generator: Adobe Illustrator 19.0.0, SVG Export Plug-In . SVG Version: 6.00 Build 0)  -->
<svg version="1.1" id="图层_1" xmlns="http://www.w3.org/2000/svg" xmlns:xlink="http://www.w3.org/1999/xlink" x="0px" y="0px"
	 viewBox="0 0 90 108" style="enable-background:new 0 0 90 108;" xml:space="preserve">
<style type="text/css">
	.st0{fill:#FFFFFF;}
	.st1{fill:#CCCCCC;}
	.st2{fill:#666666;}
	.st3{fill:#999999;}
	.st4{font-family:'ArialMT';}
	.st5{font-size:12px;}
	.st6{font-size:10px;}
</style>
<rect id="XMLID_359_" class="st0" width="90" height="108"/>
<g id="XMLID_353_">
	<rect id="XMLID_398_" x="6.5" y="32.5" class="st0" width="37" height="24"/>
	<path id="XMLID_395_" class="st1" d="M43,33v23H7V33H43 M44,32H6v25h38V32L44,32z"/>
</g>
<g id="XMLID_346_">
	<rect id="XMLID_352_" x="6" y="6" class="st1" width="10" height="10"/>
	<path id="XMLID_347_" class="st2" d="M8.5,9.2v3.6h5V9.2H8.5z M13.1,12.2L13.1,12.2L12.4,11l-0.8,0.7l-0.6-1l-2.1,1.8V9.6h4.3
		L13.1,12.2L13.1,12.2L13.1,12.2z M9.8,10c-0.3,0-0.5,0.2-0.5,0.5S9.5,11,9.8,11s0.5-0.2,0.5-0.5S10,10,9.8,10z"/>
</g>
<rect id="XMLID_345_" x="6" y="22" class="st1" width="38" height="10"/>
<g id="XMLID_338_">
	<rect id="XMLID_344_" x="19.3" y="6" class="st1" width="10" height="10"/>
	<path id="XMLID_339_" class="st2" d="M21.8,9.2v3.6h5V9.2H21.8z M26.5,12.2L26.5,12.2L25.8,11L25,11.7l-0.6-1l-2.1,1.8V9.6h4.3
		L26.5,12.2L26.5,12.2L26.5,12.2z M23.1,10c-0.3,0-0.5,0.2-0.5,0.5s0.2,0.5,0.5,0.5s0.5-0.2,0.5-0.5S23.4,10,23.1,10z"/>
</g>
<g id="XMLID_331_">
	<rect id="XMLID_337_" x="32.7" y="6" class="st1" width="10" height="10"/>
	<path id="XMLID_332_" class="st2" d="M35.2,9.2v3.6h5V9.2H35.2z M39.8,12.2L39.8,12.2L39.1,11l-0.8,0.7l-0.6-1l-2.1,1.8V9.6h4.3
		L39.8,12.2L39.8,12.2L39.8,12.2z M36.4,10c-0.3,0-0.5,0.2-0.5,0.5s0.2,0.5,0.5,0.5s0.5-0.2,0.5-0.5C37,10.2,36.7,10,36.4,10z"/>
</g>
<g id="XMLID_320_">
	<rect id="XMLID_330_" x="46" y="6" class="st1" width="10" height="10"/>
	<path id="XMLID_321_" class="st2" d="M48.5,9.2v3.6h5V9.2H48.5z M53.1,12.2L53.1,12.2L52.4,11l-0.8,0.7l-0.6-1l-2.1,1.8V9.6h4.3
		L53.1,12.2L53.1,12.2L53.1,12.2z M49.8,10c-0.3,0-0.5,0.2-0.5,0.5s0.2,0.5,0.5,0.5s0.5-0.2,0.5-0.5S50,10,49.8,10z"/>
</g>
<text id="XMLID_318_" transform="matrix(1 0 0 1 59.0007 14.0415)" class="st3 st4 st5">aaaa</text>
<text id="XMLID_317_" transform="matrix(1 0 0 1 16.6581 29.7728)" class="st2 st4 st6">aaa</text>
<g id="XMLID_314_">
	<rect id="XMLID_356_" x="46.5" y="32.5" class="st0" width="37" height="24"/>
	<path id="XMLID_316_" class="st1" d="M83,33v23H47V33H83 M84,32H46v25h38V32L84,32z"/>
</g>
<rect id="XMLID_313_" x="46" y="22" class="st1" width="38" height="10"/>
<text id="XMLID_311_" transform="matrix(1 0 0 1 56.6581 29.7728)" class="st2 st4 st6">aaa</text>
<g id="XMLID_403_">
	<rect id="XMLID_414_" x="6.5" y="70.5" class="st0" width="37" height="24"/>
	<path id="XMLID_405_" class="st1" d="M43,71v23H7V71H43 M44,70H6v25h38V70L44,70z"/>
</g>
<rect id="XMLID_402_" x="6" y="60" class="st1" width="38" height="10"/>
<text id="XMLID_399_" transform="matrix(1 0 0 1 16.6581 67.7728)" class="st2 st4 st6">aaa</text>
<g id="XMLID_360_">
	<rect id="XMLID_366_" x="46.5" y="70.5" class="st0" width="37" height="24"/>
	<path id="XMLID_362_" class="st1" d="M83,71v23H47V71H83 M84,70H46v25h38V70L84,70z"/>
</g>
<rect id="XMLID_358_" x="46" y="60" class="st1" width="38" height="10"/>
<text id="XMLID_357_" transform="matrix(1 0 0 1 56.6581 67.7728)" class="st2 st4 st6">aaa</text>
</svg>
