<?xml version="1.0" encoding="utf-8"?>
<!-- Generator: Adobe Illustrator 19.0.0, SVG Export Plug-In . SVG Version: 6.00 Build 0)  -->
<svg version="1.1" id="图层_1" xmlns="http://www.w3.org/2000/svg" xmlns:xlink="http://www.w3.org/1999/xlink" x="0px" y="0px"
	 viewBox="0 0 90 108" style="enable-background:new 0 0 90 108;" xml:space="preserve">
<style type="text/css">
	.st0{fill:#FFFFFF;}
	.st1{fill:#CCCCCC;}
	.st2{fill:#666666;}
	.st3{fill:#999999;}
	.st4{font-family:'ArialMT';}
	.st5{font-size:12px;}
	.st6{font-size:10px;}
</style>
<rect id="XMLID_477_" class="st0" width="90" height="108"/>
<g id="XMLID_471_">
	<rect id="XMLID_478_" x="6.5" y="32.5" class="st0" width="77" height="24"/>
	<path id="XMLID_474_" class="st1" d="M83,33v23H7V33H83 M84,32H6v25h78V32L84,32z"/>
</g>
<g id="XMLID_464_">
	<rect id="XMLID_470_" x="6" y="6" class="st1" width="10" height="10"/>
	<path id="XMLID_465_" class="st2" d="M8.5,9.2v3.6h5V9.2H8.5z M13.2,12.2L13.2,12.2L12.5,11l-0.8,0.7l-0.6-1L9,12.5V9.6h4.3
		L13.2,12.2L13.2,12.2L13.2,12.2z M9.8,10c-0.3,0-0.5,0.2-0.5,0.5S9.5,11,9.8,11s0.5-0.2,0.5-0.5S10.1,10,9.8,10z"/>
</g>
<rect id="XMLID_463_" x="6" y="22" class="st1" width="78" height="10"/>
<g id="XMLID_456_">
	<rect id="XMLID_462_" x="19.4" y="6" class="st1" width="10" height="10"/>
	<path id="XMLID_457_" class="st2" d="M21.9,9.2v3.6h5V9.2H21.9z M26.5,12.2L26.5,12.2L25.8,11L25,11.7l-0.6-1l-2.1,1.8V9.6h4.3
		L26.5,12.2L26.5,12.2L26.5,12.2z M23.1,10c-0.3,0-0.5,0.2-0.5,0.5s0.2,0.5,0.5,0.5s0.5-0.2,0.5-0.5S23.4,10,23.1,10z"/>
</g>
<g id="XMLID_449_">
	<rect id="XMLID_455_" x="32.7" y="6" class="st1" width="10" height="10"/>
	<path id="XMLID_450_" class="st2" d="M35.2,9.2v3.6h5V9.2H35.2z M39.8,12.2L39.8,12.2L39.1,11l-0.8,0.7l-0.6-1l-2.1,1.8V9.6h4.3
		L39.8,12.2L39.8,12.2L39.8,12.2z M36.4,10c-0.3,0-0.5,0.2-0.5,0.5s0.2,0.5,0.5,0.5s0.5-0.2,0.5-0.5C37,10.2,36.7,10,36.4,10z"/>
</g>
<g id="XMLID_442_">
	<rect id="XMLID_448_" x="46" y="6" class="st1" width="10" height="10"/>
	<path id="XMLID_443_" class="st2" d="M48.5,9.2v3.6h5V9.2H48.5z M53.2,12.2L53.2,12.2L52.5,11l-0.8,0.7l-0.6-1L49,12.5V9.6h4.3
		L53.2,12.2L53.2,12.2L53.2,12.2z M49.8,10c-0.3,0-0.5,0.2-0.5,0.5s0.2,0.5,0.5,0.5s0.5-0.2,0.5-0.5S50.1,10,49.8,10z"/>
</g>
<text id="XMLID_441_" transform="matrix(1 0 0 1 59.0198 14.0415)" class="st3 st4 st5">aaaa</text>
<text id="XMLID_440_" transform="matrix(1 0 0 1 10.5542 29.7728)" class="st2 st4 st6">aaaaaaa</text>
<g id="XMLID_417_">
	<rect id="XMLID_422_" x="6.5" y="70.5" class="st0" width="77" height="24"/>
	<path id="XMLID_419_" class="st1" d="M83,71v23H7V71H83 M84,70H6v25h78V70L84,70z"/>
</g>
<rect id="XMLID_416_" x="6" y="60" class="st1" width="78" height="10"/>
<text id="XMLID_415_" transform="matrix(1 0 0 1 10.5542 67.7728)" class="st2 st4 st6">aaaaaaa</text>
</svg>
