<?xml version="1.0" encoding="utf-8"?>
<!-- Generator: Adobe Illustrator 19.0.0, SVG Export Plug-In . SVG Version: 6.00 Build 0)  -->
<svg version="1.1" id="图层_1" xmlns="http://www.w3.org/2000/svg" xmlns:xlink="http://www.w3.org/1999/xlink" x="0px" y="0px"
	 viewBox="0 0 48 48" style="enable-background:new 0 0 48 48;" xml:space="preserve">
<style type="text/css">
	.st0{fill:#FF0000;}
</style>
<path id="XMLID_96_" class="st0" d="M14.7,1.9C17.7,0.6,20.8,0,24,0c3.3,0,6.4,0.6,9.3,1.9c3,1.3,5.5,3,7.7,5.1
	c2.1,2.1,3.9,4.7,5.1,7.7c1.3,3,1.9,6.1,1.9,9.3c0,3.3-0.6,6.4-1.9,9.3c-1.3,3-3,5.5-5.1,7.7c-2.1,2.1-4.7,3.9-7.7,5.1
	c-3,1.3-6.1,1.9-9.3,1.9c-3.3,0-6.4-0.6-9.3-1.9c-3-1.3-5.5-3-7.7-5.1c-2.1-2.1-3.9-4.7-5.1-7.7C0.6,30.3,0,27.2,0,24
	c0-3.3,0.6-6.4,1.9-9.3c1.3-3,3-5.5,5.1-7.7C9.2,4.9,11.7,3.2,14.7,1.9z M27.6,26.2L30,13.6c0.1-0.6,0-1-0.3-1.4s-0.8-0.6-1.4-0.6
	h-8.6c-0.6,0-1,0.2-1.3,0.6s-0.4,0.9-0.3,1.4l2.4,12.6c0.1,0.6,0.4,1,0.9,1.4s1,0.6,1.6,0.6h2.2c0.6,0,1.1-0.2,1.6-0.6
	C27.2,27.2,27.5,26.7,27.6,26.2z M28.2,32.4h-8.3v4.2h8.3V32.4z"/>
</svg>
