<?xml version="1.0" encoding="utf-8"?>
<!-- Generator: Adobe Illustrator 19.0.0, SVG Export Plug-In . SVG Version: 6.00 Build 0)  -->
<svg version="1.1" id="图层_1" xmlns="http://www.w3.org/2000/svg" xmlns:xlink="http://www.w3.org/1999/xlink" x="0px" y="0px"
	 viewBox="0 0 16 16" style="enable-background:new 0 0 16 16;" xml:space="preserve">
<style type="text/css">
	.st0{fill:#2ECC71;}
	.st1{fill:#FFFFFF;}
</style>
<g id="XMLID_518_">
	<ellipse id="XMLID_54_" class="st0" cx="11.2" cy="11" rx="4.8" ry="5"/>
	<path id="XMLID_55_" class="st1" d="M13.8,10.4L11,13.2l0,0l0,0l0,0c-0.1,0.1-0.3,0.2-0.4,0.2c-0.2,0-0.3-0.1-0.4-0.2l-1.5-1.5
		c-0.2-0.2-0.2-0.6,0-0.9c0.2-0.2,0.6-0.2,0.8,0l1.1,1.1L13,9.5c0.2-0.2,0.6-0.2,0.8,0C14,9.8,14,10.2,13.8,10.4z"/>
	<path id="XMLID_28_" class="st1" d="M9.3,0H2C0.9,0,0,0.9,0,2.1v10.1c0,1.2,0.9,2.1,2,2.1h4.6c-0.2-0.3-0.4-0.6-0.5-1H2
		c-0.6,0-1.1-0.5-1.1-1.1V2.1C0.9,1.5,1.4,1,2,1h7.3c0.6,0,1.1,0.5,1.1,1.1v3.3c0.2,0,0.5-0.1,0.8-0.1c0.1,0,0.1,0,0.2,0V2.1
		C11.4,1,10.4,0,9.3,0z M7.9,5.4H3.4c-0.3,0-0.5,0.2-0.5,0.5s0.2,0.5,0.5,0.5h4.5c0.1,0,0.1,0,0.2,0c0.1,0,0.1-0.1,0.2-0.1
		c0.1-0.1,0.1-0.2,0.1-0.4C8.4,5.6,8.1,5.4,7.9,5.4z M7.9,2.8H3.4C3.1,2.8,2.9,3,2.9,3.3s0.2,0.5,0.5,0.5h4.5c0.3,0,0.5-0.2,0.5-0.5
		S8.1,2.8,7.9,2.8z M3.4,10.5c-0.3,0-0.5,0.2-0.5,0.5s0.2,0.5,0.5,0.5h2.3c0-0.2,0-0.3,0-0.5s0-0.4,0-0.6L3.4,10.5L3.4,10.5z
		 M6.6,7.9H3.4c-0.3,0-0.5,0.2-0.5,0.5s0.2,0.5,0.5,0.5H6C6.2,8.6,6.4,8.2,6.6,7.9z"/>
</g>
</svg>
