<?xml version="1.0" encoding="utf-8"?>
<!-- Generator: Adobe Illustrator 19.0.0, SVG Export Plug-In . SVG Version: 6.00 Build 0)  -->
<svg version="1.1" id="图层_1" xmlns="http://www.w3.org/2000/svg" xmlns:xlink="http://www.w3.org/1999/xlink" x="0px" y="0px"
	 viewBox="0 0 32 16" style="enable-background:new 0 0 32 16;" xml:space="preserve">
<style type="text/css">
	.st0{fill:#2ECC71;}
	.st1{fill:#FFFFFF;}
</style>
<path id="XMLID_507_" class="st0" d="M28,16H0V0h28c2.2,0,4,1.8,4,4v8C32,14.2,30.2,16,28,16z"/>
<g id="XMLID_508_">
	<path id="XMLID_512_" class="st1" d="M11.6,8.9v-1h3.6v3.2c-0.6,0.4-1.1,0.8-1.7,1s-1.2,0.3-1.8,0.3c-0.8,0-1.6-0.2-2.3-0.5
		S8.2,11,7.8,10.3S7.3,8.9,7.3,8c0-0.8,0.2-1.6,0.5-2.3s0.9-1.3,1.5-1.6s1.4-0.5,2.3-0.5c0.6,0,1.2,0.1,1.7,0.3s0.9,0.5,1.2,0.8
		s0.5,0.8,0.7,1.4l-1,0.3c-0.1-0.4-0.3-0.8-0.5-1s-0.5-0.5-0.8-0.6S12,4.5,11.6,4.5c-0.5,0-1,0.1-1.3,0.2S9.6,5.1,9.4,5.3
		S9,5.8,8.9,6.1C8.7,6.6,8.6,7.2,8.6,7.8c0,0.8,0.1,1.4,0.4,1.9s0.6,0.9,1.2,1.1s1,0.4,1.6,0.4c0.5,0,1-0.1,1.4-0.3s0.8-0.4,1.1-0.6
		V8.7h-2.7V8.9z"/>
	<path id="XMLID_514_" class="st1" d="M16.5,8.1c0-1.4,0.4-2.5,1.1-3.3s1.8-1.2,3-1.2c0.8,0,1.5,0.2,2.1,0.6s1.1,0.9,1.5,1.6
		s0.5,1.4,0.5,2.3c0,0.9-0.2,1.7-0.5,2.3s-0.8,1.2-1.5,1.6s-1.3,0.5-2.1,0.5s-1.5-0.2-2.2-0.6S17.3,11,17,10.3S16.5,8.8,16.5,8.1z
		 M17.7,8.1c0,1,0.3,1.9,0.8,2.4s1.3,0.9,2.1,0.9c0.9,0,1.6-0.3,2.1-0.9s0.8-1.5,0.8-2.6c0-0.7-0.1-1.3-0.4-1.8s-0.6-0.9-1-1.2
		s-1-0.4-1.5-0.4c-0.8,0-1.5,0.3-2.1,0.8S17.7,6.8,17.7,8.1z"/>
</g>
</svg>
