<?xml version="1.0" encoding="utf-8"?>
<!-- Generator: Adobe Illustrator 19.0.0, SVG Export Plug-In . SVG Version: 6.00 Build 0)  -->
<svg version="1.1" id="图层_1" xmlns="http://www.w3.org/2000/svg" xmlns:xlink="http://www.w3.org/1999/xlink" x="0px" y="0px"
	 viewBox="0 0 90 108" style="enable-background:new 0 0 90 108;" xml:space="preserve">
<style type="text/css">
	.st0{fill:#FFFFFF;}
	.st1{fill:#CCCCCC;}
	.st2{fill:#666666;}
	.st3{fill:#999999;}
	.st4{font-family:'ArialMT';}
	.st5{font-size:12px;}
</style>
<rect id="XMLID_17_" y="0" class="st0" width="90" height="108"/>
<rect id="XMLID_16_" x="6" y="6" class="st1" width="50" height="50"/>
<path id="XMLID_77_" class="st2" d="M15,19.6v22.9h32V19.6H15z M44.7,38.7L44.7,38.7l-4.6-7.6l-5.2,4.3l-4-6.6L17.2,40.2V21.9h27.4
	L44.7,38.7L44.7,38.7L44.7,38.7z M23,24.2c-1.9,0-3.4,1.5-3.4,3.4S21.1,31,23,31s3.4-1.5,3.4-3.4C26.4,25.7,24.9,24.2,23,24.2z"/>
<g id="XMLID_61_">
	<rect id="XMLID_21_" x="6" y="59" class="st1" width="10" height="10"/>
	<path id="XMLID_24_" class="st2" d="M8.5,62.2v3.6h5v-3.6H8.5z M13.1,65.2L13.1,65.2L12.4,64l-0.8,0.7l-0.6-1l-2.1,1.8v-2.9h4.3
		v2.6H13.1L13.1,65.2z M9.8,63c-0.3,0-0.5,0.2-0.5,0.5S9.5,64,9.8,64s0.5-0.2,0.5-0.5S10,63,9.8,63z"/>
</g>
<g id="XMLID_60_">
	<rect id="XMLID_39_" x="19.3" y="59" class="st1" width="10" height="10"/>
	<path id="XMLID_18_" class="st2" d="M21.8,62.2v3.6h5v-3.6H21.8z M26.5,65.2L26.5,65.2L25.8,64L25,64.7l-0.6-1l-2.1,1.8v-2.9h4.3
		v2.6H26.5L26.5,65.2z M23.1,63c-0.3,0-0.5,0.2-0.5,0.5s0.2,0.5,0.5,0.5s0.5-0.2,0.5-0.5S23.4,63,23.1,63z"/>
</g>
<g id="XMLID_59_">
	<rect id="XMLID_48_" x="32.7" y="59" class="st1" width="10" height="10"/>
	<path id="XMLID_43_" class="st2" d="M35.2,62.2v3.6h5v-3.6H35.2z M39.8,65.2L39.8,65.2L39.1,64l-0.8,0.7l-0.6-1l-2.1,1.8v-2.9h4.3
		v2.6H39.8L39.8,65.2z M36.4,63c-0.3,0-0.5,0.2-0.5,0.5s0.2,0.5,0.5,0.5c0.3,0,0.5-0.2,0.5-0.5C37,63.2,36.7,63,36.4,63z"/>
</g>
<g id="XMLID_4_">
	<rect id="XMLID_58_" x="46" y="59" class="st1" width="10" height="10"/>
	<path id="XMLID_49_" class="st2" d="M48.5,62.2v3.6h5v-3.6H48.5z M53.1,65.2L53.1,65.2L52.4,64l-0.8,0.7l-0.6-1l-2.1,1.8v-2.9h4.3
		v2.6H53.1L53.1,65.2z M49.8,63c-0.3,0-0.5,0.2-0.5,0.5s0.2,0.5,0.5,0.5s0.5-0.2,0.5-0.5S50,63,49.8,63z"/>
</g>
<g id="XMLID_86_">
	<rect id="XMLID_95_" x="6" y="72" class="st1" width="10" height="10"/>
	<path id="XMLID_90_" class="st2" d="M8.5,75.2v3.6h5v-3.6H8.5z M13.1,78.2L13.1,78.2L12.4,77l-0.8,0.7l-0.6-1l-2.1,1.8v-2.9h4.3
		v2.6H13.1L13.1,78.2z M9.8,76c-0.3,0-0.5,0.2-0.5,0.5S9.5,77,9.8,77s0.5-0.2,0.5-0.5S10,76,9.8,76z"/>
</g>
<g id="XMLID_79_">
	<rect id="XMLID_85_" x="19.3" y="72" class="st1" width="10" height="10"/>
	<path id="XMLID_80_" class="st2" d="M21.8,75.2v3.6h5v-3.6H21.8z M26.5,78.2L26.5,78.2L25.8,77L25,77.7l-0.6-1l-2.1,1.8v-2.9h4.3
		v2.6H26.5L26.5,78.2z M23.1,76c-0.3,0-0.5,0.2-0.5,0.5s0.2,0.5,0.5,0.5s0.5-0.2,0.5-0.5S23.4,76,23.1,76z"/>
</g>
<g id="XMLID_70_">
	<rect id="XMLID_76_" x="32.7" y="72" class="st1" width="10" height="10"/>
	<path id="XMLID_71_" class="st2" d="M35.2,75.2v3.6h5v-3.6H35.2z M39.8,78.2L39.8,78.2L39.1,77l-0.8,0.7l-0.6-1l-2.1,1.8v-2.9h4.3
		v2.6H39.8L39.8,78.2z M36.4,76c-0.3,0-0.5,0.2-0.5,0.5s0.2,0.5,0.5,0.5c0.3,0,0.5-0.2,0.5-0.5C37,76.2,36.7,76,36.4,76z"/>
</g>
<g id="XMLID_63_">
	<rect id="XMLID_69_" x="46" y="72" class="st1" width="10" height="10"/>
	<path id="XMLID_64_" class="st2" d="M48.5,75.2v3.6h5v-3.6H48.5z M53.1,78.2L53.1,78.2L52.4,77l-0.8,0.7l-0.6-1l-2.1,1.8v-2.9h4.3
		v2.6H53.1L53.1,78.2z M49.8,76c-0.3,0-0.5,0.2-0.5,0.5s0.2,0.5,0.5,0.5s0.5-0.2,0.5-0.5S50,76,49.8,76z"/>
</g>
<g id="XMLID_119_">
	<rect id="XMLID_125_" x="6" y="85" class="st1" width="10" height="10"/>
	<path id="XMLID_120_" class="st2" d="M8.5,88.2v3.6h5v-3.6H8.5z M13.1,91.2L13.1,91.2L12.4,90l-0.8,0.7l-0.6-1l-2.1,1.8v-2.9h4.3
		v2.6H13.1L13.1,91.2z M9.8,89c-0.3,0-0.5,0.2-0.5,0.5S9.5,90,9.8,90s0.5-0.2,0.5-0.5S10,89,9.8,89z"/>
</g>
<g id="XMLID_112_">
	<rect id="XMLID_118_" x="19.3" y="85" class="st1" width="10" height="10"/>
	<path id="XMLID_113_" class="st2" d="M21.8,88.2v3.6h5v-3.6H21.8z M26.5,91.2L26.5,91.2L25.8,90L25,90.7l-0.6-1l-2.1,1.8v-2.9h4.3
		v2.6H26.5L26.5,91.2z M23.1,89c-0.3,0-0.5,0.2-0.5,0.5s0.2,0.5,0.5,0.5s0.5-0.2,0.5-0.5S23.4,89,23.1,89z"/>
</g>
<g id="XMLID_105_">
	<rect id="XMLID_111_" x="32.7" y="85" class="st1" width="10" height="10"/>
	<path id="XMLID_106_" class="st2" d="M35.2,88.2v3.6h5v-3.6H35.2z M39.8,91.2L39.8,91.2L39.1,90l-0.8,0.7l-0.6-1l-2.1,1.8v-2.9h4.3
		v2.6H39.8L39.8,91.2z M36.4,89c-0.3,0-0.5,0.2-0.5,0.5s0.2,0.5,0.5,0.5c0.3,0,0.5-0.2,0.5-0.5C37,89.2,36.7,89,36.4,89z"/>
</g>
<g id="XMLID_98_">
	<rect id="XMLID_104_" x="46" y="85" class="st1" width="10" height="10"/>
	<path id="XMLID_99_" class="st2" d="M48.5,88.2v3.6h5v-3.6H48.5z M53.1,91.2L53.1,91.2L52.4,90l-0.8,0.7l-0.6-1l-2.1,1.8v-2.9h4.3
		v2.6H53.1L53.1,91.2z M49.8,89c-0.3,0-0.5,0.2-0.5,0.5s0.2,0.5,0.5,0.5s0.5-0.2,0.5-0.5S50,89,49.8,89z"/>
</g>
<text id="XMLID_11_" transform="matrix(1 0 0 1 59.0008 15.0415)" class="st3 st4 st5">aaaa</text>
<text id="XMLID_10_" transform="matrix(1 0 0 1 59.0008 26.0415)" class="st3 st4 st5">aaaa</text>
<text id="XMLID_9_" transform="matrix(1 0 0 1 59.0008 37.0415)" class="st3 st4 st5">aaaa</text>
<text id="XMLID_8_" transform="matrix(1 0 0 1 59.0008 48.0415)" class="st3 st4 st5">aaaa</text>
<text id="XMLID_7_" transform="matrix(1 0 0 1 59.0008 59.0415)" class="st3 st4 st5">aaaa</text>
<text id="XMLID_6_" transform="matrix(1 0 0 1 59.0008 70.0415)" class="st3 st4 st5">aaaa</text>
<text id="XMLID_5_" transform="matrix(1 0 0 1 59.0008 81.0415)" class="st3 st4 st5">aaaa</text>
<text id="XMLID_3_" transform="matrix(1 0 0 1 59.0008 92.0415)" class="st3 st4 st5">aaaa</text>
</svg>
