<?xml version="1.0" encoding="utf-8"?>
<!-- Generator: Adobe Illustrator 19.0.0, SVG Export Plug-In . SVG Version: 6.00 Build 0)  -->
<svg version="1.1" id="图层_1" xmlns="http://www.w3.org/2000/svg" xmlns:xlink="http://www.w3.org/1999/xlink" x="0px" y="0px"
	 viewBox="0 0 90 108" style="enable-background:new 0 0 90 108;" xml:space="preserve">
<style type="text/css">
	.st0{fill:#FFFFFF;}
	.st1{fill:#CCCCCC;}
	.st2{fill:#666666;}
	.st3{fill:#999999;}
	.st4{font-family:'ArialMT';}
	.st5{font-size:12px;}
</style>
<rect id="XMLID_216_" class="st0" width="90" height="108"/>
<rect id="XMLID_215_" x="6" y="6" class="st1" width="50" height="50"/>
<path id="XMLID_210_" class="st2" d="M15,19.6v22.9h32V19.6H15z M44.7,38.7L44.7,38.7l-4.6-7.6l-5.2,4.3l-4-6.6L17.2,40.2V21.9h27.4
	v16.8H44.7L44.7,38.7z M23,24.2c-1.9,0-3.4,1.5-3.4,3.4S21.1,31,23,31s3.4-1.5,3.4-3.4C26.4,25.7,24.9,24.2,23,24.2z"/>
<g id="XMLID_203_">
	<rect id="XMLID_209_" x="59" y="6" class="st1" width="10" height="10"/>
	<path id="XMLID_204_" class="st2" d="M61.5,9.2v3.6h5V9.2H61.5z M66.1,12.2L66.1,12.2L65.4,11l-0.8,0.7l-0.6-1l-2.1,1.8V9.6h4.3
		L66.1,12.2L66.1,12.2L66.1,12.2z M62.8,10c-0.3,0-0.5,0.2-0.5,0.5s0.2,0.5,0.5,0.5s0.5-0.2,0.5-0.5S63,10,62.8,10z"/>
</g>
<g id="XMLID_196_">
	<rect id="XMLID_202_" x="72.3" y="6" class="st1" width="10" height="10"/>
	<path id="XMLID_197_" class="st2" d="M74.8,9.2v3.6h5V9.2H74.8z M79.5,12.2L79.5,12.2L78.8,11L78,11.7l-0.6-1l-2.1,1.8V9.6h4.3
		L79.5,12.2L79.5,12.2L79.5,12.2z M76.1,10c-0.3,0-0.5,0.2-0.5,0.5s0.2,0.5,0.5,0.5s0.5-0.2,0.5-0.5S76.4,10,76.1,10z"/>
</g>
<g id="XMLID_189_">
	<rect id="XMLID_195_" x="59" y="45" class="st1" width="10" height="10"/>
	<path id="XMLID_190_" class="st2" d="M61.5,48.2v3.6h5v-3.6H61.5z M66.1,51.2L66.1,51.2L65.4,50l-0.8,0.7l-0.6-1l-2.1,1.8v-2.9h4.3
		L66.1,51.2L66.1,51.2L66.1,51.2z M62.8,49c-0.3,0-0.5,0.2-0.5,0.5s0.2,0.5,0.5,0.5s0.5-0.2,0.5-0.5S63,49,62.8,49z"/>
</g>
<g id="XMLID_182_">
	<rect id="XMLID_188_" x="72.3" y="45" class="st1" width="10" height="10"/>
	<path id="XMLID_183_" class="st2" d="M74.8,48.2v3.6h5v-3.6H74.8z M79.5,51.2L79.5,51.2L78.8,50L78,50.7l-0.6-1l-2.1,1.8v-2.9h4.3
		L79.5,51.2L79.5,51.2L79.5,51.2z M76.1,49c-0.3,0-0.5,0.2-0.5,0.5s0.2,0.5,0.5,0.5s0.5-0.2,0.5-0.5S76.4,49,76.1,49z"/>
</g>
<g id="XMLID_175_">
	<rect id="XMLID_181_" x="59" y="19" class="st1" width="10" height="10"/>
	<path id="XMLID_176_" class="st2" d="M61.5,22.2v3.6h5v-3.6H61.5z M66.1,25.2L66.1,25.2L65.4,24l-0.8,0.7l-0.6-1l-2.1,1.8v-2.9h4.3
		L66.1,25.2L66.1,25.2L66.1,25.2z M62.8,23c-0.3,0-0.5,0.2-0.5,0.5s0.2,0.5,0.5,0.5s0.5-0.2,0.5-0.5S63,23,62.8,23z"/>
</g>
<g id="XMLID_168_">
	<rect id="XMLID_174_" x="72.3" y="19" class="st1" width="10" height="10"/>
	<path id="XMLID_169_" class="st2" d="M74.8,22.2v3.6h5v-3.6H74.8z M79.5,25.2L79.5,25.2L78.8,24L78,24.7l-0.6-1l-2.1,1.8v-2.9h4.3
		L79.5,25.2L79.5,25.2L79.5,25.2z M76.1,23c-0.3,0-0.5,0.2-0.5,0.5s0.2,0.5,0.5,0.5s0.5-0.2,0.5-0.5S76.4,23,76.1,23z"/>
</g>
<g id="XMLID_147_">
	<rect id="XMLID_153_" x="59" y="32" class="st1" width="10" height="10"/>
	<path id="XMLID_148_" class="st2" d="M61.5,35.2v3.6h5v-3.6H61.5z M66.1,38.2L66.1,38.2L65.4,37l-0.8,0.7l-0.6-1l-2.1,1.8v-2.9h4.3
		L66.1,38.2L66.1,38.2L66.1,38.2z M62.8,36c-0.3,0-0.5,0.2-0.5,0.5s0.2,0.5,0.5,0.5s0.5-0.2,0.5-0.5S63,36,62.8,36z"/>
</g>
<g id="XMLID_140_">
	<rect id="XMLID_146_" x="72.3" y="32" class="st1" width="10" height="10"/>
	<path id="XMLID_141_" class="st2" d="M74.8,35.2v3.6h5v-3.6H74.8z M79.5,38.2L79.5,38.2L78.8,37L78,37.7l-0.6-1l-2.1,1.8v-2.9h4.3
		L79.5,38.2L79.5,38.2L79.5,38.2z M76.1,36c-0.3,0-0.5,0.2-0.5,0.5s0.2,0.5,0.5,0.5s0.5-0.2,0.5-0.5S76.4,36,76.1,36z"/>
</g>
<text id="XMLID_6_" transform="matrix(1 0 0 1 6.0008 66.3312)" class="st3 st4 st5">aaaaaaaaaaaa</text>
<text id="XMLID_5_" transform="matrix(1 0 0 1 6.0008 77.3312)" class="st3 st4 st5">aaaaaaaaaaaa</text>
<text id="XMLID_4_" transform="matrix(1 0 0 1 6.0008 88.3312)" class="st3 st4 st5">aaaaaaaaaaaa</text>
<text id="XMLID_3_" transform="matrix(1 0 0 1 6.0008 99.3312)" class="st3 st4 st5">aaaaaaaaaaaa</text>
</svg>
