<?xml version="1.0" encoding="utf-8"?>
<!-- Generator: Adobe Illustrator 19.0.0, SVG Export Plug-In . SVG Version: 6.00 Build 0)  -->
<svg version="1.1" id="图层_1" xmlns="http://www.w3.org/2000/svg" xmlns:xlink="http://www.w3.org/1999/xlink" x="0px" y="0px"
	 viewBox="0 0 90 108" style="enable-background:new 0 0 90 108;" xml:space="preserve">
<style type="text/css">
	.st0{fill:#FFFFFF;}
	.st1{fill:#CCCCCC;}
	.st2{fill:#666666;}
	.st3{fill:#999999;}
	.st4{font-family:'ArialMT';}
	.st5{font-size:12px;}
</style>
<rect id="XMLID_252_" class="st0" width="90" height="108"/>
<rect id="XMLID_251_" x="6" y="6" class="st1" width="50" height="50"/>
<path id="XMLID_246_" class="st2" d="M15,19.6v22.9h32V19.6H15z M44.7,38.7L44.7,38.7l-4.6-7.6l-5.2,4.3l-4-6.6L17.2,40.2V21.9h27.4
	v16.8H44.7L44.7,38.7z M23,24.2c-1.9,0-3.4,1.5-3.4,3.4S21.1,31,23,31s3.4-1.5,3.4-3.4S24.9,24.2,23,24.2z"/>
<rect id="XMLID_245_" x="59" y="6" class="st1" width="23" height="23"/>
<path id="XMLID_240_" class="st2" d="M64.5,13.2v8.6h12v-8.6H64.5z M75.7,20.4L75.7,20.4L74,17.5l-1.9,1.6l-1.6-2.4L65.4,21v-6.9
	h10.3L75.7,20.4L75.7,20.4L75.7,20.4z M67.5,15c-0.7,0-1.3,0.6-1.3,1.3s0.6,1.3,1.3,1.3s1.3-0.6,1.3-1.3S68.2,15,67.5,15z"/>
<rect id="XMLID_132_" x="59" y="32.1" class="st1" width="23" height="23"/>
<path id="XMLID_127_" class="st2" d="M64.5,39.3v8.6h12v-8.6H64.5z M75.7,46.5L75.7,46.5L74,43.6l-1.9,1.6l-1.6-2.5L65.4,47v-6.9
	h10.3L75.7,46.5L75.7,46.5L75.7,46.5z M67.5,41c-0.7,0-1.3,0.6-1.3,1.3s0.6,1.3,1.3,1.3s1.3-0.6,1.3-1.3C68.8,41.6,68.2,41,67.5,41z
	"/>
<text id="XMLID_6_" transform="matrix(1 0 0 1 6.0198 66.3312)" class="st3 st4 st5">aaaaaaaaaaaa</text>
<text id="XMLID_5_" transform="matrix(1 0 0 1 6.0198 77.3312)" class="st3 st4 st5">aaaaaaaaaaaa</text>
<text id="XMLID_4_" transform="matrix(1 0 0 1 6.0198 88.3312)" class="st3 st4 st5">aaaaaaaaaaaa</text>
<text id="XMLID_3_" transform="matrix(1 0 0 1 6.0198 99.3312)" class="st3 st4 st5">aaaaaaaaaaaa</text>
</svg>
