<?xml version="1.0" encoding="utf-8"?>
<!-- Generator: Adobe Illustrator 19.0.0, SVG Export Plug-In . SVG Version: 6.00 Build 0)  -->
<svg version="1.1" id="图层_1" xmlns="http://www.w3.org/2000/svg" xmlns:xlink="http://www.w3.org/1999/xlink" x="0px" y="0px"
	 viewBox="0 0 90 108" style="enable-background:new 0 0 90 108;" xml:space="preserve">
<style type="text/css">
	.st0{fill:#FFFFFF;}
	.st1{fill:#CCCCCC;}
	.st2{fill:#666666;}
	.st3{fill:#999999;}
	.st4{font-family:'ArialMT';}
	.st5{font-size:12px;}
</style>
<rect id="XMLID_166_" class="st0" width="90" height="108"/>
<rect id="XMLID_165_" x="6" y="6" class="st1" width="50" height="50"/>
<path id="XMLID_160_" class="st2" d="M15,19.6v22.9h32V19.6H15z M44.7,38.7L44.7,38.7l-4.6-7.6l-5.2,4.3l-4-6.6L17.2,40.2V21.9h27.4
	v16.8H44.7L44.7,38.7z M23,24.2c-1.9,0-3.4,1.5-3.4,3.4S21.1,31,23,31s3.4-1.5,3.4-3.4S24.9,24.2,23,24.2z"/>
<rect id="XMLID_159_" x="6" y="59" class="st1" width="23" height="23"/>
<path id="XMLID_154_" class="st2" d="M11.5,66.2v8.6h12v-8.6H11.5z M22.6,73.4L22.6,73.4l-1.7-2.9L19,72.1l-1.5-2.5l-5.1,4.3V67
	h10.2V73.4L22.6,73.4L22.6,73.4z M14.5,68c-0.7,0-1.3,0.6-1.3,1.3s0.6,1.3,1.3,1.3s1.3-0.6,1.3-1.3S15.2,68,14.5,68z"/>
<rect id="XMLID_139_" x="32" y="59" class="st1" width="23" height="23"/>
<path id="XMLID_134_" class="st2" d="M37.5,66.2v8.6h12v-8.6H37.5z M48.6,73.4L48.6,73.4l-1.7-2.9L45,72.1l-1.5-2.5l-5.1,4.3V67
	h10.2V73.4L48.6,73.4L48.6,73.4z M40.5,68c-0.7,0-1.3,0.6-1.3,1.3s0.6,1.3,1.3,1.3s1.3-0.6,1.3-1.3S41.2,68,40.5,68z"/>
<rect id="XMLID_223_" x="58" y="59" class="st1" width="23" height="23"/>
<path id="XMLID_218_" class="st2" d="M63.5,66.2v8.6h12v-8.6H63.5z M74.6,73.4L74.6,73.4l-1.7-2.9L71,72.1l-1.5-2.5l-5.1,4.3V67
	h10.2V73.4L74.6,73.4L74.6,73.4z M66.5,68c-0.7,0-1.3,0.6-1.3,1.3s0.6,1.3,1.3,1.3s1.3-0.6,1.3-1.3S67.2,68,66.5,68z"/>
<rect id="XMLID_239_" x="6" y="85" class="st1" width="23" height="17"/>
<rect id="XMLID_227_" x="32" y="85" class="st1" width="23" height="17"/>
<rect id="XMLID_233_" x="58" y="85" class="st1" width="23" height="17"/>
<path id="XMLID_234_" class="st2" d="M11.5,92.2v8.6h12v-8.6H11.5z M22.6,99.4L22.6,99.4l-1.7-2.9L19,98.1l-1.5-2.5l-5.1,4.3V93
	h10.2V99.4L22.6,99.4L22.6,99.4z M14.5,94c-0.7,0-1.3,0.6-1.3,1.3s0.6,1.3,1.3,1.3s1.3-0.6,1.3-1.3S15.2,94,14.5,94z"/>
<path id="XMLID_228_" class="st2" d="M37.5,92.2v8.6h12v-8.6H37.5z M48.6,99.4L48.6,99.4l-1.7-2.9L45,98.1l-1.5-2.5l-5.1,4.3V93
	h10.2V99.4L48.6,99.4L48.6,99.4z M40.5,94c-0.7,0-1.3,0.6-1.3,1.3s0.6,1.3,1.3,1.3s1.3-0.6,1.3-1.3S41.2,94,40.5,94z"/>
<path id="XMLID_167_" class="st2" d="M63.5,92.2v8.6h12v-8.6H63.5z M74.6,99.4L74.6,99.4l-1.7-2.9L71,98.1l-1.5-2.5l-5.1,4.3V93
	h10.2V99.4L74.6,99.4L74.6,99.4z M66.5,94c-0.7,0-1.3,0.6-1.3,1.3s0.6,1.3,1.3,1.3s1.3-0.6,1.3-1.3S67.2,94,66.5,94z"/>
<text id="XMLID_7_" transform="matrix(1 0 0 1 59.0002 12.0415)" class="st3 st4 st5">aaaa</text>
<text id="XMLID_6_" transform="matrix(1 0 0 1 59.0002 23.0415)" class="st3 st4 st5">aaaa</text>
<text id="XMLID_5_" transform="matrix(1 0 0 1 59.0002 34.0415)" class="st3 st4 st5">aaaa</text>
<text id="XMLID_4_" transform="matrix(1 0 0 1 59.0002 45.0415)" class="st3 st4 st5">aaaa</text>
<text id="XMLID_3_" transform="matrix(1 0 0 1 59.0002 56.0415)" class="st3 st4 st5">aaaa</text>
</svg>
