<?xml version="1.0" encoding="utf-8"?>
<!-- Generator: Adobe Illustrator 19.0.0, SVG Export Plug-In . SVG Version: 6.00 Build 0)  -->
<svg version="1.1" id="图层_1" xmlns="http://www.w3.org/2000/svg" xmlns:xlink="http://www.w3.org/1999/xlink" x="0px" y="0px"
	 viewBox="0 0 90 108" style="enable-background:new 0 0 90 108;" xml:space="preserve">
<style type="text/css">
	.st0{fill:#FFFFFF;}
	.st1{fill:#CCCCCC;}
	.st2{fill:#666666;}
	.st3{fill:#999999;}
	.st4{font-family:'ArialMT';}
	.st5{font-size:12px;}
</style>
<rect id="XMLID_296_" class="st0" width="90" height="108"/>
<rect id="XMLID_295_" x="6" y="6" class="st1" width="78" height="30"/>
<path id="XMLID_290_" class="st2" d="M29,9.6v22.9h32V9.6H29z M58.7,28.7L58.7,28.7l-4.6-7.6l-5.2,4.3l-4-6.6L31.2,30.2V11.9h27.4
	L58.7,28.7L58.7,28.7L58.7,28.7z M37,14.2c-1.9,0-3.4,1.5-3.4,3.4S35.1,21,37,21s3.4-1.5,3.4-3.4C40.4,15.7,38.9,14.2,37,14.2z"/>
<rect id="XMLID_259_" x="6" y="60.5" class="st1" width="78" height="30"/>
<path id="XMLID_254_" class="st2" d="M29,64.1V87h32V64.1H29z M58.7,83.1L58.7,83.1l-4.6-7.6l-5.2,4.3l-4-6.6L31.2,84.6V66.3h27.4
	L58.7,83.1L58.7,83.1L58.7,83.1z M37,68.6c-1.9,0-3.4,1.5-3.4,3.4s1.5,3.4,3.4,3.4s3.4-1.5,3.4-3.4C40.4,70.2,38.9,68.6,37,68.6z"/>
<rect id="XMLID_265_" x="6" y="93.5" class="st1" width="78" height="11"/>
<text id="XMLID_7_" transform="matrix(1 0 0 1 6.0002 46.3315)" class="st3 st4 st5">aaaaaaaaaaaa</text>
<text id="XMLID_6_" transform="matrix(1 0 0 1 6.0002 57.3315)" class="st3 st4 st5">aaaaaaaaaaaa</text>
<path id="XMLID_271_" class="st2" d="M29,97.1v7.4h2.3v-5.1h27.4v5.1H61v-7.4H29z M37,101.6c-1.7,0-3.1,1.2-3.4,2.9h6.7
	C40.1,102.9,38.7,101.6,37,101.6z"/>
</svg>
