<?xml version="1.0" encoding="utf-8"?>
<!-- Generator: Adobe Illustrator 19.0.0, SVG Export Plug-In . SVG Version: 6.00 Build 0)  -->
<svg version="1.1" id="图层_1" xmlns="http://www.w3.org/2000/svg" xmlns:xlink="http://www.w3.org/1999/xlink" x="0px" y="0px"
	 viewBox="0 0 90 108" style="enable-background:new 0 0 90 108;" xml:space="preserve">
<style type="text/css">
	.st0{fill:#FFFFFF;}
	.st1{fill:#CCCCCC;}
	.st2{fill:#666666;}
	.st3{fill:#999999;}
	.st4{font-family:'ArialMT';}
	.st5{font-size:12px;}
</style>
<rect id="XMLID_281_" y="0" class="st0" width="90" height="108"/>
<rect id="XMLID_280_" x="6" y="6" class="st1" width="78" height="30"/>
<path id="XMLID_275_" class="st2" d="M29,9.6v22.9h32V9.6H29z M58.7,28.7L58.7,28.7l-4.6-7.6l-5.2,4.3l-4-6.6L31.2,30.2V11.9h27.4
	L58.7,28.7L58.7,28.7L58.7,28.7z M37,14.2c-1.9,0-3.4,1.5-3.4,3.4S35.1,21,37,21s3.4-1.5,3.4-3.4C40.4,15.7,38.9,14.2,37,14.2z"/>
<rect id="XMLID_274_" x="6" y="49.3" class="st1" width="78" height="30"/>
<path id="XMLID_266_" class="st2" d="M29,52.9v22.9h32V52.9H29z M58.7,72L58.7,72l-4.6-7.6l-5.2,4.3l-4-6.6L31.2,73.5V55.2h27.4
	L58.7,72L58.7,72L58.7,72z M37,57.5c-1.9,0-3.4,1.5-3.4,3.4s1.5,3.4,3.4,3.4s3.4-1.5,3.4-3.4C40.4,59,38.9,57.5,37,57.5z"/>
<rect id="XMLID_287_" x="6" y="92.6" class="st1" width="78" height="11.9"/>
<text id="XMLID_263_" transform="matrix(1 0 0 1 6.0002 46.3315)" class="st3 st4 st5">aaaaaaaaaaaa</text>
<text id="XMLID_261_" transform="matrix(1 0 0 1 6.0002 89.6296)" class="st3 st4 st5">aaaaaaaaaaaa</text>
<path id="XMLID_284_" class="st2" d="M29,96.2v8.3h2.3v-6h27.4v6H61v-8.3H29z M37,100.8c-1.9,0-3.4,1.5-3.4,3.4c0,0.1,0,0.2,0,0.3
	h6.8c0-0.1,0-0.2,0-0.3C40.4,102.3,38.9,100.8,37,100.8z"/>
</svg>
